/* XPM */
static char *_ee0351413e944968423829dcdf3829eyulWQDBb0ZYHuEqn[] = {
/* columns rows colors chars-per-pixel */
"50 50 165 2 ",
"   c None",
".  c #563859",
"X  c #663A5F",
"o  c #693F5F",
"O  c #633A62",
"+  c #683F64",
"@  c #6D415E",
"#  c #7C4352",
"$  c #7F4953",
"%  c #71455F",
"&  c #72485F",
"*  c #794D5E",
"=  c #7E515E",
"-  c #57795B",
";  c #5D795C",
":  c #63735C",
">  c #7A7556",
",  c #6B4361",
"<  c #734A60",
"1  c #7C5262",
"2  c #7F5962",
"3  c #775061",
"4  c #824E55",
"5  c #855256",
"6  c #865559",
"7  c #885759",
"8  c #875C5F",
"9  c #8B5C5B",
"0  c #9D6346",
"q  c #8F605D",
"w  c #9C6B56",
"e  c #91635D",
"r  c #956B5F",
"t  c #9D6D5A",
"y  c #9F705B",
"u  c #A26B4A",
"i  c #A77A5E",
"p  c #AC7B5A",
"a  c #A5755B",
"s  c #B17F5A",
"d  c #845B61",
"f  c #8D6664",
"g  c #966561",
"h  c #926A62",
"j  c #9B6D62",
"k  c #9D7265",
"l  c #A27262",
"z  c #A27966",
"x  c #AB7F67",
"c  c #A57C69",
"v  c #7D885E",
"b  c #7B9E5A",
"n  c #74A356",
"m  c #78A257",
"M  c #7CA359",
"N  c #7FA859",
"B  c #938C58",
"V  c #879254",
"C  c #999757",
"Z  c #989754",
"A  c #B2835E",
"S  c #A29D57",
"D  c #83A55B",
"F  c #83AA5A",
"G  c #89AD5C",
"H  c #99A356",
"J  c #98A85C",
"K  c #85B05C",
"L  c #92B55E",
"P  c #9ABC5F",
"I  c #9AB65D",
"U  c #A2AD5D",
"Y  c #B2A95E",
"T  c #A98167",
"R  c #AC826B",
"E  c #B48565",
"W  c #B78A62",
"Q  c #BA8D64",
"!  c #B1876C",
"~  c #B9876C",
"^  c #B38A6C",
"/  c #B98E6F",
"(  c #A79B65",
")  c #BC9066",
"_  c #BD936A",
"`  c #B79F6C",
"'  c #B68F73",
"]  c #BF8F74",
"[  c #BD9475",
"{  c #BD9877",
"}  c #8AA261",
"|  c #8FA961",
" . c #96A666",
".. c #93AC63",
"X. c #9BA66A",
"o. c #94B561",
"O. c #9AB764",
"+. c #9BBC61",
"@. c #B2AD6F",
"#. c #BBAC6C",
"$. c #AFB060",
"%. c #A0BF62",
"&. c #B7B663",
"*. c #B9AF78",
"=. c #C69A67",
"-. c #C19669",
";. c #C59A6C",
":. c #C89E6D",
">. c #C39474",
",. c #C59D74",
"<. c #CD9F77",
"1. c #C69C7C",
"2. c #CCA16E",
"3. c #C8A073",
"4. c #C8A47E",
"5. c #CFA97A",
"6. c #C0B07C",
"7. c #D9B27F",
"8. c #9EC262",
"9. c #A6C364",
"0. c #AAC665",
"q. c #ADC967",
"w. c #A6C468",
"e. c #AFC969",
"r. c #B5CD6A",
"t. c #BCCE6D",
"y. c #BBD16D",
"u. c #C2CD6E",
"i. c #C4D771",
"p. c #C9DB74",
"a. c #C4DB72",
"s. c #CAA480",
"d. c #CEAA82",
"f. c #CDA98A",
"g. c #D2AD84",
"h. c #CAB481",
"j. c #D6B286",
"k. c #DBB584",
"l. c #DAB689",
"z. c #DCB98A",
"x. c #D7B997",
"c. c #D4B391",
"v. c #E2BC8D",
"b. c #E7BD90",
"n. c #E8BE91",
"m. c #DEC29E",
"M. c #E3C79C",
"N. c #E8CEA6",
"B. c #E6CCA3",
"V. c #E6D1AF",
"C. c #E9D3AC",
"Z. c #EED8AF",
"A. c #EBD7B1",
"S. c #EFDCB6",
"D. c #EDD9B3",
"F. c #EFDDB9",
"G. c #EFDDB8",
"H. c #F0DDB6",
"J. c #F0DBB4",
"K. c #F1DFB8",
"L. c #F0DFBC",
"P. c #F3E0B7",
"I. c #F4E2BA",
"U. c #F1E1BD",
"Y. c #F2E4C1",
/* pixels */
"                                            g q q q q g                                             ",
"                                      e 9 j z.l.l.l.l.z.j 9 e                                       ",
"                                7 6 z z.j.l.v.v.v.v.v.v.l.j.z.z 6 7                                 ",
"                          7 4 R z.j.l.v.v.l.b D D D D b l.v.v.l.j.z.R 4 7                           ",
"                  5 6 $ ' l.j.l.v.v.j.M } ..r.+.+.+.+.r...} M j.v.v.l.j.l.' $ 6 6                   ",
"            5 5 # { j.g.l.v.v.h.D } | P F F i.9.9.9.9.i.F F P | } D h.v.v.l.g.j.{ # 5 5             ",
"          5 1.g.d.z.v.b.6.}  .} G r.e.%.G M 0.L L L L 0.M G %.e.r.G }  .} 6.b.v.z.d.g.1.5           ",
"          5 j.v.n.*. . ...P L M o.p.y.+.G F y.+.+.+.+.y.F G +.y.p.o.M L P .. . .*.n.v.j.5           ",
"          7 <.@.X.| n L r.r.+.F G q.0.%.G F i.9.9.9.9.i.F G %.0.q.G F +.r.r.L n | X.@.<.7           ",
"            l v F L m w.p.r.+.F G y.r.+.G M q.L L L L q.M G +.r.y.G F +.r.p.w.m L F v l             ",
"              : O.+.m o.r.0.+.F o.p.y.+.G M r.+.+.+.+.r.M G +.y.p.o.F +.0.r.o.m +.O.:               ",
"              ; O.+.m +.r.q.+.F G r.q.+.G F a.9.9.9.9.a.F G +.q.r.G F +.q.r.+.m +.O.;               ",
"              ; O.+.m w.p.r.+.F G r.e.8.K m Y S S S S Y m K 8.e.r.G F +.r.p.w.m +.O.;               ",
"              ; O.+.m +.r.q.+.N o.p.t.C Z B s.s.s.s.s.s.B Z C t.p.o.N +.q.r.+.m +.O.;               ",
"              ; O.+.m o.r.q.+.D C &.#.1.1.d.I.K.K.K.K.I.d.1.1.#.&.C D +.q.r.o.m +.O.;               ",
"              ; O.+.n w.u.$.H ( 1.[ f.I.H.H.D.D.D.D.D.D.H.H.I.f.[ 1.( H $.u.w.n +.O.;               ",
"              - O.I V U #.] ] c.I.H.H.D.D.A.k.k.k.k.k.k.A.D.D.H.H.I.c.] ] #.U V I O.-               ",
"              > J ` >.~ x.P.J.S.G.G.C.7.k.j.s.s.s.s.s.s.j.k.k.C.G.G.H.J.P.x.~ >.` J >               ",
"            / >.E m.H.D.S.K.L.C.7.j.j.d.d.4.4 6 6 6 7 4 4.d.d.j.k.7.C.U.G.S.D.H.m.E >./             ",
"          u N.J.Z.G.U.U.B.k.j.j.g.g.1.$ 6 7 e e e e e e 7 6 $ 1.g.g.j.j.k.B.U.U.G.D.J.N.u           ",
"          0 V.U.Y.M.k.j.j.g.j.{ $ 7 7 e e e e e e e e e e e e 7 7 $ { j.g.j.j.k.M.Y.U.V.0           ",
"          5 g.k.j.j.j.l.' 5 9 9 e e e e e e e e e e e e e e e e e e 9 9 5 ' l.j.j.j.k.g.5           ",
"          5 s.l.z.R 7 9 y p p p p p p p p p p p p p p p p p p p p p p p p y 9 7 R z.l.s.5           ",
"            9 9 7 i -.;.;.;.;.;.;.;.;.;.;.;.;.;.;.;.;.;.;.;.;.;.;.;.;.;.;.;.;.-.i 6 9 9             ",
"                X ^ ;.;.;.;.;.;.;.;.;.;.;.;.;.;.;.;.;.;.;.;.;.;.;.;.;.;.;.;.;.;.! .                 ",
"                , t p p p p p p p p p p p p p p p p p p p p p p p p p p p p p p t ,                 ",
"                X ! ;.;.;.;.;.;.;.;.;.;.;.;.;.;.;.;.;.;.;.;.;.;.;.;.;.;.;.;.;.;.! X                 ",
"                X ^ ;.;.;.;.;.;.;.;.;.;.;.;.;.;.;.;.;.;.;.;.;.;.;.;.;.;.;.;.;.;.^ X                 ",
"                X ^ :.2.T 1 1 k 2.;.;.;.;.;.:.:.:.:.:.:.;.;.;.;.;.2.k 1 3 T 2.:.^ X                 ",
"                , l s r d 9 9 8 h p p p p p 2 d d d d 2 p p p p p h 8 9 9 d r s l ,                 ",
"                X R =.k = e e 8 f =._ -._ * 9 9 9 9 9 9 * _ -._ =.f 8 e e = k =.R X                 ",
"                X ^ 2.k * 9 9 = h :.;._ d 9 e e e e e e 9 d _ ;.:.h = 9 9 * k 2.^ X                 ",
"                X ^ 2.k h Q Q k f 2.;._ @ e e e e e e e e @ _ ;.2.f k Q Q h k 2.^ X                 ",
"                , l A t [ k.j.,.w A A i < e e e e e e e e < i A A w ,.j.k.[ t A l ,                 ",
"                o x ) Q ,.5.5.3.Q Q Q E & e e e e e e e e & E Q Q Q 3.5.5.,.Q ) x o                 ",
"                X ^ :.;.=.;.;.=.;.;.;._ % e q q q q q q e % _ ;.;.;.=.;.;.=.;.:.^ X                 ",
"                X / 2.:.:.:.:.:.:.:.:._ % e t t t t t t e % _ :.:.:.:.:.:.:.:.2./ X                 ",
"                  k R c z k z c R R R z 1 a Q Q Q Q Q Q a 1 z R R R c z k z c R k                   ",
"                    O O d r d O O O O O 1 i ;._ _ _ _ ;.i 1 O O O O O d r d O O                     ",
"                      O c =.T O           j ;.Q ) ) Q ;.j           O T =.c O                       ",
"                      O R 2.! O           k ;.-.-.-.-.;.k           O ! 2.R O                       ",
"                      O R 2.R O           k ;.Q Q Q Q ;.k           O R 2.R O                       ",
"                      O R 2.R O           k ;.-.-.-.-.;.k           O R 2.R O                       ",
"                      O R 2.! O           k ;.W Q Q W ;.k           O ! 2.R O                       ",
"                        k ;.z O           k ;.;.;.;.;.;.k           O z ;.k                         ",
"                          @ +             k ;.W W W W ;.k             , @                           ",
"                                          k ;.;.;.;.;.;.k                                           ",
"                                          l ;.W W W W ;.l                                           ",
"                                          j ;.;.;.;.;.;.j                                           ",
"                                            g q q q q g                                             "
};
