/* XPM */
static char *result[] = {
/* columns rows colors chars-per-pixel */
"50 50 205 2 ",
"   c #543F3F",
".  c #393C43",
"X  c #434147",
"o  c #46454A",
"O  c #4A464B",
"+  c #4F4A4C",
"@  c #4A4247",
"#  c #564847",
"$  c #544C4D",
"%  c #5C4D4D",
"&  c #5E514D",
"*  c #5F4C50",
"=  c #64464A",
"-  c #634D4A",
";  c #6D4B4E",
":  c #714F47",
">  c #734E4E",
",  c #794C4E",
"<  c #62524D",
"1  c #6C514A",
"2  c #6E5C4F",
"3  c #7C5447",
"4  c #72534A",
"5  c #7E5A4A",
"6  c #765349",
"7  c #664D52",
"8  c #6D4F53",
"9  c #744F52",
"0  c #7A4D54",
"q  c #6E5154",
"w  c #745154",
"e  c #7B5456",
"r  c #7E5954",
"t  c #7E5758",
"y  c #7F5859",
"u  c #755A51",
"i  c #835A49",
"p  c #875849",
"a  c #95574F",
"s  c #9D5D4E",
"d  c #845354",
"f  c #8B5354",
"g  c #845A53",
"h  c #8E5C55",
"j  c #815659",
"k  c #89555E",
"l  c #84585A",
"z  c #8C5B5D",
"x  c #915554",
"c  c #955C54",
"v  c #985E57",
"b  c #925C5C",
"n  c #9A5E5C",
"m  c #A25F4F",
"M  c #8C634C",
"N  c #95614B",
"B  c #9C624B",
"V  c #856352",
"C  c #8D6754",
"Z  c #8D6C52",
"A  c #946454",
"S  c #9D6452",
"D  c #936B53",
"F  c #9E6D52",
"G  c #93635B",
"H  c #9D625C",
"J  c #967253",
"K  c #9A7453",
"L  c #AD6945",
"P  c #A4614F",
"I  c #AA644F",
"U  c #A46A4B",
"Y  c #AD6B4F",
"T  c #B46D45",
"R  c #BB6B42",
"E  c #B06D48",
"W  c #AD704B",
"Q  c #B57147",
"!  c #B87146",
"~  c #B4734B",
"^  c #BC754D",
"/  c #BD794E",
"(  c #A56552",
")  c #AC6550",
"_  c #A36851",
"`  c #AE6C55",
"'  c #A2665E",
"]  c #A76E59",
"[  c #B26651",
"{  c #BB6553",
"}  c #BC6851",
"|  c #B46E56",
" . c #AB7259",
".. c #B77355",
"X. c #B97551",
"o. c #BC7854",
"O. c #855360",
"+. c #8A5760",
"@. c #8C5A60",
"#. c #925E61",
"$. c #956162",
"%. c #9B6363",
"&. c #9F666A",
"*. c #9D6863",
"=. c #9E7363",
"-. c #A06362",
";. c #A26C64",
":. c #A47063",
">. c #AC7765",
",. c #AE7965",
"<. c #B27C67",
"1. c #B27B68",
"2. c #B07461",
"3. c #C3674F",
"4. c #C5684F",
"5. c #C37347",
"6. c #C2764E",
"7. c #C3784F",
"8. c #C87448",
"9. c #C46750",
"0. c #C56B52",
"q. c #CB6F53",
"w. c #C47651",
"e. c #C97255",
"r. c #C47A51",
"t. c #CA7D54",
"y. c #CD7D59",
"u. c #C47C58",
"i. c #D87759",
"p. c #D07E5A",
"a. c #DB785A",
"s. c #B78051",
"d. c #BA855A",
"f. c #B9895B",
"g. c #B78259",
"h. c #BB8967",
"j. c #B78169",
"k. c #BC856A",
"l. c #BE896D",
"z. c #B98365",
"x. c #BF8C71",
"c. c #C7834F",
"v. c #CC8355",
"b. c #CC865C",
"n. c #C18D5C",
"m. c #CD8B5D",
"M. c #C78555",
"N. c #D1835C",
"B. c #D38B5A",
"V. c #D38852",
"C. c #C3905F",
"Z. c #CC945E",
"A. c #CD985F",
"S. c #DC9257",
"D. c #DF925A",
"F. c #E08B5D",
"G. c #E69456",
"H. c #E69659",
"J. c #EA995A",
"K. c #C58E63",
"L. c #C88A60",
"P. c #C18968",
"I. c #D28462",
"U. c #D78D62",
"Y. c #CB9467",
"T. c #CD9A65",
"R. c #CE946A",
"E. c #CF996B",
"W. c #D49762",
"Q. c #DB9464",
"!. c #D49967",
"~. c #DC9C66",
"^. c #D1966B",
"/. c #D69C6A",
"(. c #DB9D6C",
"). c #CB9073",
"_. c #E68D64",
"`. c #E29E63",
"'. c #E29E6C",
"]. c #DBA26B",
"[. c #DBA067",
"{. c #DDA271",
"}. c #ECA363",
"|. c #E3A46C",
" X c #EAA56D",
".X c #E6A96E",
"XX c #E9AB6E",
"oX c #E7A466",
"OX c #E2A573",
"+X c #E9A571",
"@X c #E6AA74",
"#X c #EBAD73",
"$X c #EAAE7A",
"%X c #F3AC73",
"&X c #EDB173",
"*X c #EBB17D",
"=X c #F2B273",
"-X c #F4B579",
";X c #F7B87B",
":X c #FABB7C",
">X c #FEB371",
",X c #F9BD82",
"<X c #FFC584",
"1X c #FFC985",
"2X c None",
/* pixels */
"2X2X2X2X2X2X2X2X2X2X2X2X2X2X2X2X2X2X2X2X2X2X,X:X;X;X;X2X2X2X2X2X2X2X2X2X2X2X2X2X2X2X2X2X2X2X2X2X2X2X",
"2X2X2X2X2X2X2X2X2X2X2X2X2X2X2X2X2X2X2X2X,X<X:X:X:X:X<X:X;X2X2X2X2X2X2X2X2X2X2X2X2X2X2X2X2X2X2X2X2X2X",
"2X2X2X2X2X2X2X2X2X2X2X2X2X2X2X2X2X2X,X<X<X:X,X{.'.;X:X:X<X;X;X2X2X2X2X2X2X2X2X2X2X2X2X2X2X2X2X2X2X2X",
"2X2X2X2X2X2X2X2X2X2X2X2X2X2X2X2X#X<X,X:X:X@Xz.@.{ p.'.;X:X:X<X;X-X2X2X2X2X2X2X2X2X2X2X2X2X2X2X2X2X2X",
"2X2X2X2X2X2X2X2X2X2X2X2X2X2X2X:X:X#X&X@Xj.@.k +.{ 9.9.y.'.;X:X;X<X;X;X2X2X2X2X2X2X2X2X2X2X2X2X2X2X2X",
"2X2X2X2X2X2X2X2X2X2X2X2X:X-X:X:X:X@X,.@.+.@.$.,.L.e.9.9.3.p. X;X:X:X<X:X:X2X2X2X2X2X2X2X2X2X2X2X2X2X",
"2X2X2X2X2X2X2X2X2X2X;X<X:X:X:X{.1.@.+.@.#.,.Y.].]./.m.w.9.9.3.y.'.;X:X:X<X-X-X2X2X2X2X2X2X2X2X2X2X2X",
"2X2X2X2X2X2X2X2X=X1X,X-X;X-X,.k @.@.$.,.Y.(.].|..X].].[.I.e.9.9.3.e.+X:X-X:X<X:X2X2X2X2X2X2X2X2X2X2X",
"2X2X2X2X2X2X2X2X_.+X;X:X;X-X).;.z ,.Y.].].|.@XXXXXXX.X].].!.m.0.0.U.%X:X:X:X@X).;.2X2X2X2X2X2X2X2X2X",
"2X2X2X2X2X2X2XB.9.9.N.+X:X:X:X-XOX].].|.XXXXXXXX+XXXXXXX.X].].|.#X;X,X:X$XP.#.O.:.2X2X2X2X2X2X2X2X2X",
"2X2X2X2X2X[.|.~.0.9.9.3.I.@X:X:X:X;X#X@X.X.XXX.XXX.XXX.X.X&X-X;X-X,X$Xx.#.+.@.O.j.XX~.2X2X2X2X2X2X2X",
"2X2X2X2XN.%XXXXX|.N.0.9.9.9.I.@X:X:X:X-X#X.X.X.XXX.X@X&X&X-X:X:X,Xx.#.k @.+.;.R.XXXXOXP.2X2X2X2X2X2X",
"2X2X2X2Xr.t.v.Q.XX&X'.N.0.4.3.4.I.+X;X:X:X-X&X@X@X|.U. X;X:X$Xx.#.k @.+.:.R.XX&X].1.@.@.2X2X2X2X2X2X",
"2X2X2X2Xr.F.t.6.v.Q..X#X|.N.0.4.3.3.b.+X;X:X:X-X-X-X=X'./.l.#.O.@.z =.^.XX@X~.,.@.@.&.#.2X2X2X2X2X2X",
"2X2X2X2X2Xr.t.v.r.6.v.Q..X#X'.b.0.9.3.3.I.+X;X;X:X:X$Xl.@.+.@.+.] R.&X{.h.$.z +.$.$.z 2X2X2X2X2X2X2X",
"2X2X2X2X2X2X( ` r.t.r.w.t.Q.#X&X XN.0.9.3.9.y. X@Xk.@.k @.@.;.R.&X&Xh.=.j.h.$.$.k j g 2X2X2X2X2X2X2X",
"2X2X2X2X2X2X` m S E r.v.w.6.v.'.#X&X|.N.0.9.9.0.' +.z @.:.R.XX=X{.>.z ,.1.*.j e w y h 2X2X2X2X2X2X2X",
"2X2X2X2X2X2X| I [ m B [ w.t.r.6.y.~.#X#X|.N.0.9.b +.:.R.#X=X].<.z z $.#.j w w e e G C 2X2X2X2X2X2X2X",
"2X2X2X2X2X2X` I ) [ ) P s I r.t.r.6.t.~.#X&X|.N.2.R.&X=X{.1.@.+.$.$.l w w e j t e y g 2X2X2X2X2X2X2X",
"2X2X2X2X2Xe.) I I ) P [ ) I s Y w.t.r.w.y.`.#X#X#X=X(.,.@.+.#.$.l e w t j w y y e y -.2X2X2X2X2X2X2X",
"2X2X2X2X2X0.a.e.[ ) ) ) ) I [ P m I r.t.r.6.t.Q./.>.@.k #.#.k e w r e y y e w y @.&.$.2X2X2X2X2X2X2X",
"2X2X2X2X2X2X2Xe.i.0.[ P ) ) ) ) I P B Y w.t.7.9.%.+.#.#.l w 4 e e y e w w j @.&.$.@.2X2X2X2X2X2X2X2X",
"2X2X2X2X2X2X2X2X2X9.q.0.[ ) I ) I [ I P s Y w.t.-.#.l e w e l e e e e j z %.#.b 2X2X2X2X2X2X2X2X2X2X",
"2X2X2X2X2X2X2X2X2Xc ` } e.0.[ I I [ I [ ) ( m ) c 9 w y y w y e e t @.$.#.y ; 2X2X2X2X2X2X2X2X2X2X2X",
"2X2X2X2X2X2X2X2X2XU ` N P } e.0.[ ( ) ) I I [ S h w e y t e w y @.$.#.e > > w 2X2X2X2X2X2X2X2X2X2X2X",
"2X2X2X2X2X2X2X2X2X2XW U B N B } q.0.[ I ) I I _ A w y w e y @.$.b e 9 ; > z f 2X2X2X2X2X2X2X2X2X2X2X",
"2X2X2X2X2X2X2X2X2X2Xw./ ~ B U N m } q.0.[ ) m _ A w y j b $.#.e ; > 9 j b -.2X2X2X2X2X2X2X2X2X2X2X2X",
"2X2X2X2X2X2X2X2X2X2X^ 6.7.5 5 B U B m } e.0.[ U c w #.$.#.e > > 9 8 % #.%.%.2X2X2X2X2X2X2X2X2X2X2X2X",
"2X2X2X2X2X2X2X2X2X2X~ ^ ! i - < 6 B U B s } q.4.%.#.b e ; > > = 7 7 q h b %.2X2X2X2X2X2X2X2X2X2X2X2X",
"2X2X2X2X2X2X2X2X2X2X/ / ! i 1 4 # . : B U N P } n e ; > 9 = X @ w 8 q d b *.2X2X2X2X2X2X2X2X2X2X2X2X",
"2X2X2X2X2X2X2X2X2X2X^ 7.5.i 1 1 < < $ O 6 U B B , ; e = @ $ % * q q 9 b $.;.2X2X2X2X2X2X2X2X2X2X2X2X",
"2X2X2X2X2X2X2X2X2X2X~ ^ R i 1 1 & < < $ # Q ~ U d e z ; + & < % 7 q q z n #.2X2X2X2X2X2X2X2X2X2X2X2X",
"2X2X2X2X2X2X2X2X2X2X6.^ ~ i 1 4 < < & $ 1 ! 7./ c c %.9 o & & & q q 8 d b -.2X2X2X2X2X2X2X2X2X2X2X2X",
"2X2X2X2X2X2X2X2X2X2X/ 6.7.i 1 1 < < & $ - T 6.6.H b f = % * < * q q q z b -.2X2X2X2X2X2X2X2X2X2X2X2X",
"2X2X2X2X2X2X2X2X2X2X~ ^ 6.i - 1 & & & & - ~ ^ E c z b q + & & % 7 q q #.b %.2X2X2X2X2X2X2X2X2X2X2X2X",
"2X2X2X2X2X2X2X2X2X2XR ^ ~ i 1 4 < & & $ 1 6.6./ H b %.w O & & & 8 8 q k z %.2X2X2X2X2X2X2X2X2X2X2X2X",
"2X2X2X2X2X2X2X2X2X2XR R 7.i 1 4 < < & $ - E / 6.H b v = $ % & * w w w @.b -.2X2X2X2X2X2X2X2X2X2X2X2X",
"2X2X2X2X2X2X2X2X2X2XL R R i < 1 % < & & - ~ ~ ^ A k #.; + % & % 7 q q b x G 2X2X2X2X2X2X2X2X2X2X2X2X",
"2X2X2X2X2X2X2X2X2X2XR Q Q 5 1 6 < * % O 4 / / / H $.v > o % % * q w 8 d f b 2X2X2X2X2X2X2X2X2X2X2X2X",
"2X2X2X2X2X2X2X2X2X2XR R R i 1 1 - + O O % E / 6.' b f = o O O % 7 q q z x v 2X2X2X2X2X2X2X2X2X2X2X2X",
"2X2X2X2X2X2X2X2X2X2XT Q R 3 - 5 Z V < o   ! ! ^ v d x = . & u V 5 q 7 f f h 2X2X2X2X2X2X2X2X2X2X2X2X",
"2X2X2X2X2X2X2X2X2X2X5.^ L M Z J J K K 2 1 R R T c f x > % V D G C C g 0 d -.2X2X2X2X2X2X2X2X2X2X2X2X",
"2X2X2X2X2X2X2X2X2X2X2X5.M.K F K K Z V Z J L R R a f f r V V V C D G z ( ` 2X2X2X2X2X2X2X2X2X2X2X2X2X",
"2X2X2X2X2X2X2X2X2X2X2X].&X].X.U M Z J J Z T Q T a f z g C C C l f  .!.}.@X2X2X2X2X2X2X2X2X2X2X2X2X2X",
"2X2X2X2X2X2X2X2X2X2X].K.m.oXoX{.z.F F K D R R ! c f f d G G f F ^.}.XXE.z.T.2X2X2X2X2X2X2X2X2X2X2X2X",
"2X2X2X2X2X2X2X2X2X[.&X&X!.X.K.oX}.~.X._ D L R R a f f d c ( B.}.#XY...L.XX&X&Xn.2X2X2X2X2X2X2X2X2X2X",
"2X2X2X2X2X2X2X.X.XT.f.m.G.J.W.d.r.D.}.D.I L ! T c d f d v.J.H.t...Y..X}.S.f.C.&X+X2X2X2X2X2X2X2X2X2X",
"2X2X2X2X2X2X2X2X[.>X=XZ.s.C.@XXXV./ M...p R 8.! v x x , S u.r.t.`.}.W.f.C.].-X|.T.2X2X2X2X2X2X2X2X2X",
"2X2X2X2X2X2X2X2X2X2X`.H.XXT.f.c.G.H._ 2X2X2XR R a d 2X2X2Xd B.J.V.g.C.oX=XXXZ.2X2X2X2X2X2X2X2X2X2X2X",
"2X2X2X2X2X2X2X2X2X2X2X2XS.#XH.V.U 2X2X2X2X2X2X2X2X2X2X2X2X2X2X_ s.S.XXoX2X2X2X2X2X2X2X2X2X2X2X2X2X2X"
};
