/* XPM */
static char *_4674cb998b9412ba0379b7ea112f64acrAR4PC3ZMwkLL08[] = {
/* columns rows colors chars-per-pixel */
"50 50 46 1 ",
"  c #77B310",
". c #78B411",
"X c #7BB713",
"o c #7CB814",
"O c #7FBB16",
"+ c #7FC100",
"@ c #80BD17",
"# c #81BE18",
"$ c #81C203",
"% c #81C204",
"& c #82C20B",
"* c #83C20E",
"= c #83C210",
"- c #83C214",
"; c #84C217",
": c #83C01A",
"> c #85C21B",
", c #85C21C",
"< c #86C41C",
"1 c #86C220",
"2 c #88C225",
"3 c #8AC32B",
"4 c #8BC32E",
"5 c #8CC32F",
"6 c #8DC332",
"7 c #8EC335",
"8 c #91C33A",
"9 c #92C43E",
"0 c #94C440",
"q c #97C446",
"w c #98C447",
"e c #98C448",
"r c #9CC54E",
"t c #9FC552",
"y c #9FC554",
"u c #A0C555",
"i c #A3C659",
"p c #A4C65B",
"a c #A6C65D",
"s c #A9C761",
"d c #ABC764",
"f c #AEC767",
"g c #AFC769",
"h c #AFC869",
"j c #B0C86B",
"k c #B1C86C",
/* pixels */
">>>>>>>>>>>>>>>>>>>>>>>>>>>>>>>>>>>>>>>>>>>>>>>>>>",
">>>>>>>>>>>>>>>>>>>>>>>>>>>>>>>>>>>>>>>>>>>>>>>>>>",
">>>>>>>>>>>>>>>>>>>>>>>>>>>>>>>>>>>>>>>>>>>>>>>>>>",
">>>>>>>>>>>>>>>>>>>>>>>>>>>>>>>>>>>>>>>>>>>>>>>>>>",
">>>>>>>>>>>>>>>>>>>>>>>>>>>>>>>>>>>>>>>>>>>>>>>>>>",
">>>>>>>>>>>>>>>>>>,>&*>,>>>>>>>>>>>>>>>>>>>>>>>,>>",
">>>>>>>>>>,;=;,>>>;208>>>>>>>>>>>>>>>>>>>>>>>>:#:>",
">>>>>>>>>>>>>>>>>>%6su>=>>>>>>>>>>>>>>>>>>>>>,@.@,",
">>>>>>>>,;+7t8=>>>$7fp>=>>>>>>>>>>>>>,#o>>>>>,@.@,",
">>>>>>>>>,2tge$>>>&5pt>=>>>>>>>>>>>>>:o.:,>>>>#o#>",
">,>=$$=>&4ufgq$>>>>153>>>>>>>>>,,>>>#o..:,>>>>>:>>",
">;>8eq7=+7dft7=>>>,>&*>,>>>>>>#@#>,,@..@>>>>>>>,>>",
">=>tggt>+6su>=>>>>>>>>>>>>>>,:o..#,,@.@,>>>>>>>>>>",
">;>7tfft6,08==,>>>>>>>>>>>>>>>#o..@>>#>>>>>>>>>>>>",
">,>+2ufhq$%*>,>>>>>>>>>>>>>>>><#o..:,,>>>>>>>>>>>>",
">>>;,2the$;>>>>>>>>>>>>>>>>>>>>>:o.:,>>>>>>>>>>>>>",
">>>;&+6t8=>>===>,>>>>>>>>>>>>>>,<#o>>>>>>>>>>>>>>>",
">>>>>>>>>>>>>>>>>>>>>>>>>>>>>>>>>>>>>>>>>>>>>>>>>>",
",*%0uiq==>*8uie1$>,>>>>>>>>>,>@oo#,>>>@oo#,>>>>>>>",
">16pjfr>=>&0sjs01>>>>>>>>>>>>#...#>>>>o..o:>>>>>>>",
"&0sjs01>>>>16pjfr>=>>>>>>>>>o..o:>>>>>>#...#>>>>>>",
"*8uie1$>,>,*%0uiw>;>>>>>>>>>@oo#,>>>>>,>@oo#>>>>>>",
">>>>>>>>>>>>>>>>>>>>>>>>>>>>>>>>>>>>>>>>>>>>>>>>>>",
",>===>,>>>>>>;==;>>>>>>>>>>>>>>>>>>>>>>>>>>>>>>>>>",
">>>>>>>>>>>>>>>>>>>>>>>>>>>>>>>>>>>>>>>>>>>>>>>>>>",
">>>>>>>>>>>>>>>>>>>>>>>>>>>>>>>>>>>>>>>>>>>>>>>>>>",
">>>>>>>>>>>>>>>>>>>>>>>>>>>>>>>>>>>>>>>>>>>>>>>>>>",
">>>>>>>>>>>>>>>>>>>>>>>>>>>>>>>>>>>>>>>>>>>>>>>>>>",
">>>>>>>>>>>>>>>>>>>>>>>>>>>>>>>>>>>>>>>>>>>>>>>>>>",
">>>>>>>>>>>>>>>>>>>>>>>>>>>>>>>>>>>>>>>>>>>>>>>>>>",
",;%$&>,>,>&$%;,>,>*&>,>>>>>>>,,>>>>>>,,>>>>>>>>>>>",
";50q9,*>*,9eq6->>>801*>>>>>>###:>>>>>#@#>>>>>##>>>",
"%0fja6%>%6ajf0%>=>us6%>>>>>>o..o>>>,#..o:,>,:.o>>>",
"$qjkdi9>9phsq4->=>ijp0>;>>>>o ..o>>@..o#>>>,:..o:>",
"&9adfjt>yjse%&,>=>esju>=>>>>@....#>..o#<>>>>>o..@,",
">,6ijjr>uf0,>>>>>>10fi>=>>>>>#...#>.o:>>>>>>>>o.@,",
",*%9igu>qr1$>,>>,>$1rw>;>>>>,>@..#>o#,>>>>>>><:o#>",
">>>%6su>=>>>>>>>>>>>>>>>>>>>>>,@.@,>>>>>>>>>>>>>>>",
">>>*,08>==>,>>>>>>,>=;>>>>>>>>>>#:>>>>>>>>>>>>>>>>",
">>>,>&*>>>>>>>>>>>>>>>>>>>>>>>>>,>>>>>>>>>>>>>>>>>",
">>>>>>>>=$$=>,>,;%-,>>>>>>>>>>>>>>>>,,>>>>>>>>>>>>",
">>>>>>;>8eq7=;>&406;>>>>>>>>>>>>>>>#@#>>>>>##>>>>>",
">>>>>>=>tggt>=>%qfq%>>>>>>>>>>>>>,:o..#,>>>o.:,>>>",
">>>>>>;>7tfft61esje$>>>>>>>>>>>>>>>#o..@>:o..:,>>>",
">>>>>>,>+2ufg03sja9&>>>>>>>>>>>>>>><#o..>#..o>>>>>",
">>>>>>>>;,2tg03da6,>>>>>>>>>>>>>>>>>>:o.>#.o>>>>>>",
">>>>>>>>,;+7t72rq%*,>>>>>>>>>>>>>>>>>,#o>:o:,>>>>>",
">>>>>>>>>>>>>>>>>>>>>>>>>>>>>>>>>>>>>>>>>>>>>>>>>>",
">>>>>>>>>>,;=>>=;>>>>>>>>>>>>>>>>>>>>>>>>>>>>>>>>>",
">>>>>>>>>>>>>>>>>>>>>>>>>>>>>>>>>>>>>>>>>>>>>>>>>>"
};
