/* XPM */
static char *result[] = {
/* columns rows colors chars-per-pixel */
"50 50 226 2 ",
"   c #001C30",
".  c #392D3C",
"X  c #730B01",
"o  c #481A36",
"O  c #6D1B2D",
"+  c #572D3B",
"@  c #4A323A",
"#  c #5C313D",
"$  c #6A393C",
"%  c #743433",
"&  c #7B423F",
"*  c #00004B",
"=  c #693846",
"-  c #753F46",
";  c #005453",
":  c #005D5A",
">  c #105050",
",  c #3A5859",
"<  c #046867",
"1  c #186967",
"2  c #007875",
"3  c #266967",
"4  c #3A716B",
"5  c #267875",
"6  c #357B70",
"7  c #474A47",
"8  c #555855",
"9  c #794845",
"0  c #624353",
"q  c #6B4756",
"w  c #754B56",
"e  c #7B5358",
"r  c #6C5352",
"t  c #4F675D",
"y  c #545762",
"u  c #566D65",
"i  c #746564",
"p  c #7B776D",
"a  c #69676A",
"s  c #930E0C",
"d  c #8F2D08",
"f  c #853623",
"g  c #96461B",
"h  c #9F4600",
"j  c #88473E",
"k  c #9F523A",
"l  c #9B4226",
"z  c #B36633",
"x  c #834543",
"c  c #8B4B43",
"v  c #864B49",
"b  c #924D42",
"n  c #9B4F43",
"m  c #8B574C",
"M  c #9A5847",
"N  c #824D5A",
"B  c #83535B",
"V  c #8C565D",
"C  c #89585B",
"Z  c #A45A48",
"A  c #A95D4A",
"S  c #A35747",
"D  c #A45F53",
"F  c #9D624A",
"G  c #90634C",
"H  c #A1644A",
"J  c #A56C4E",
"K  c #A8654B",
"L  c #B7754B",
"P  c #A96451",
"I  c #B16E50",
"U  c #B87A53",
"Y  c #B46E4E",
"T  c #8D5963",
"R  c #9A5D65",
"E  c #935963",
"W  c #A15E68",
"Q  c #9F6068",
"!  c #9A6968",
"~  c #957669",
"^  c #916D7A",
"/  c #A4616A",
"(  c #AA666F",
")  c #AD6B70",
"_  c #B26A74",
"`  c #B77777",
"'  c #AA7867",
"]  c #C47D5A",
"[  c #D9764E",
"{  c #FF7B42",
"}  c #00957B",
"|  c #008775",
" . c #268A79",
".. c #29967C",
"X. c #39967C",
"o. c #398776",
"O. c #30A17E",
"+. c #409E7D",
"@. c #74867B",
"#. c #BE8156",
"$. c #BE855A",
"%. c #939478",
"&. c #8F846F",
"*. c #BA886D",
"=. c #88A17C",
"-. c #C2835A",
";. c #C58C5D",
":. c #CA8458",
">. c #D5865A",
",. c #D2915F",
"<. c #FE8C5F",
"1. c #FF945C",
"2. c #CD9361",
"3. c #D99768",
"4. c #C6877F",
"5. c #C6946A",
"6. c #FD9468",
"7. c #EC9168",
"8. c #E2A36B",
"9. c #FEB268",
"0. c #E8A97C",
"q. c #FCA776",
"w. c #FEB976",
"e. c #FFBF7A",
"r. c #FAB376",
"t. c #FFC17B",
"y. c #FFC274",
"u. c #009A83",
"i. c #2E9B81",
"p. c #309D85",
"a. c #00AB88",
"s. c #0EB18A",
"d. c #29AE8A",
"f. c #33A587",
"g. c #2AB48D",
"h. c #37B38C",
"j. c #38BF93",
"k. c #2BB690",
"l. c #4C9685",
"z. c #4CBA90",
"x. c #63B481",
"c. c #56B9A6",
"v. c #7BA8B8",
"b. c #00C0AB",
"n. c #2EC6B3",
"m. c #47CD97",
"M. c #53D99D",
"N. c #56CB95",
"B. c #6AD59A",
"V. c #56C1AD",
"C. c #57CEB8",
"Z. c #4FCAB5",
"A. c #5EDECC",
"S. c #7ADDC9",
"D. c #69D4C2",
"F. c #5BE3D1",
"G. c #7BE2CF",
"H. c #77E7D4",
"J. c #6CE5D0",
"K. c #6EF8E3",
"L. c #A7988D",
"P. c #91B195",
"I. c #B3AB92",
"U. c #96B1B0",
"Y. c #CA8D83",
"T. c #C78880",
"R. c #C99B88",
"E. c #D4958A",
"W. c #D6A692",
"Q. c #C9B59A",
"!. c #D4BC9C",
"~. c #D0A583",
"^. c #FFBC84",
"/. c #FDBB8A",
"(. c #FDB284",
"). c #FEBE93",
"_. c #E2AF9A",
"`. c #D5BEA4",
"'. c #EDBBA4",
"]. c #80C6B2",
"[. c #A4C3A6",
"{. c #A8D2B9",
"}. c #BECDAA",
"|. c #FFC186",
" X c #FEC28A",
".X c #FFCD8F",
"XX c #FFCB99",
"oX c #FFD596",
"OX c #DCCBAC",
"+X c #DCC5A5",
"@X c #C5CFB3",
"#X c #E5CDAD",
"$X c #ECCAA9",
"%X c #FFD8A7",
"&X c #ECD4B3",
"*X c #EAD9B6",
"=X c #F4DAB7",
"-X c #E7D0AF",
";X c #FFE4A9",
":X c #87B5C6",
">X c #97B9C7",
",X c #9BD5CF",
"<X c #B4D5D9",
"1X c #B8CDC5",
"2X c #89E4D3",
"3X c #8DEEDC",
"4X c #ACEADD",
"5X c #B1D7E5",
"6X c #86FDE9",
"7X c #9FFBE9",
"8X c #A7F4E6",
"9X c #BBF8EC",
"0X c #B8FCF2",
"qX c #DEEBDE",
"wX c #FFECC9",
"eX c #FDE6C3",
"rX c #FFF4CE",
"tX c #C8F6EC",
"yX c #D3F7EB",
"uX c #CCFEF4",
"iX c #C4FFFC",
"pX c #CDFFF9",
"aX c #C7FDF2",
"sX c #D4FFFA",
"dX c #D4EEE3",
"fX c None",
/* pixels */
"fXfXfXfXfXfXfXfXfXfXfXfXfXfXfXfXfXfXfXfXfXfXfXfXfXfXfXfXfXfXfXfXfXfXfXfXfXfXfXfXfXfXfXfXfXfXfXfXfXfX",
"fXfXfXfXfXfXfXfXfXfXfXfXfXfXfXfXfXfXfXfXfXfXfXfXfXfXfXfXfXfXfXfXfXfXfXfXfXfXfXfXfXfXfXfXfXfXfXfXfXfX",
"fXfXfXfXfXfXfXfXfXfX).%X%X).fXfXfXfXfXfXfXfXfXfXfXfXfXfXfXfXfXfXfXfXfXfXfXfXfXfXfXfXfXfXfXfXfXfXfXfX",
"fXfXfXfXfXfXfXfXfXfXXX)./.3.fXfXfXfXfXfXfXfXfXfXfXfXfXfXfXfXfXfXfXfXfXfXfXfXfXfXfXfXfXfXfXfXfXfXfXfX",
"fXfXfXfXfXfXfXfXfXfX~.3.>.:.fXfXfXfXfXfXfXfXfXfXfXfXfXfXfXfXfXfXfXfXfXfXfXfXfXfXfXfXfXfXfXfXfXfXfXfX",
"fXfXfXfXfXfXfXfXfXfXO K ,.:.fXfXfXfXfXfXfXfXfXfXfXfXfXfXfXfXfXfXfXfXfXfXfXfXfXfXfXfXfXfXfXfXfXfXfXfX",
"fXfXfXfXfXfXfXfXfXfXc Y 3.>.fXfXfXfXfXfXfXfXfXfXfXfXfXfXfXfXfXfXfXfXfXfXfXfXfXfXfXfXfXfXfXfXfXfXfXfX",
"fXfXfXfXfXfXfXfXfXfXj Y >.H fXfXfXfXfXfXfXfXfXfXfXfXfXfXfXfXfXfXfXfXfXfXfXfXfXfXfXfXfXfXfXfXfXfXfXfX",
"fXfXfXfXfXfXfXfXfXfXx K ] I fXfXfXfXfXfXfXfXfXfXfXfXfXfXfXfXfXfXfXfXfXfXfXfXfXfXfXfXfXfXfXfXfXfXfXfX",
"fXfXfXfXfXfXfXfXfXfXc F U U fXfXfXfXfXfXfXfXfXfXfXfXfXfXfXfXfXfXfXfXfXfXfXfXfXfXfXfXfXfXfXfXfXfXfXfX",
"fXfXfXfXfXfXfXfXfXfXc H U c fXfXfXfXfXfXfXfXfXfXfXfXfXfXfXfXfXfXfXfXfXfXfXfXfXfXfXfXfXfXfXfXfXfXfXfX",
"fXfXfXfXfXfXfXfXfXfX& M M c fXfXfXfXfXfXfXfXfXfXfXfXfXfXfXfXfXfXfXfXfXfXfXfXfXfXfXfXfXfXfXfXfXfXfXfX",
"fXfXfXfXfXfXfXfXfXfX+ & b c fXfXfXfXfXfXfXfXfXfXfXfXfXfXfXfXfXfXfXfXfXfXfXfXfXfXfXfXfXfXfXfXfXfXfXfX",
"fXfXfXfXfXfXfXfXfXfXfX= $ fXfXfXfXfXfXfXfXfXfXfXfXfXfXfXfXfXfXfXfXfXfXfXfXfXfXfXfXfXfXfXfXfXfXfXfXfX",
"fXfXfXfXfXfXfXfXfXfXfX+ + fXfXfXfXfXfXfXfXfX9.y.e.t.t.e.e.e.t.t.w.r.r.r.3.fXfXfXfXfXfXfXfXfXfXfXfXfX",
"fXfXfXfXfXfXfXfXfXfXfXfX9 fXfXfXfXfXfXH.F.{.@X}.9.9.w.w.r.w.r.8.2.$.;.;.8.2.2.fXfXfXfXfXfXfXfXfXfXfX",
"fXfXfXfXfXfXfXfXfXfXfXfXM fXfXfXfXfXH.6X8XiX0X0XyX@X] #.#.#.2.;.J M F F M J 8.2.fXfXfXfXfXfXfXfXfXfX",
"fXfXfXfXfXfXfXfXfXfXfXfXD fXfXfXfXH.2XaXpXuXuXuXuXpX' z L L ;.J n S Z Z Z n J 2.fXfXfXfXfXfXfXfXfXfX",
"fXfXfXfXfXfXfXfXfXfXfXfX] fXfXfXG.J.8XpXuXuXuXuXuXuX1XS F ;.$.j A Z S A Z A j ;.2.fXfXfXfXfXfXfXfXfX",
"fXfXfXfXfXfXfXfXfXfXfXfX-.fXfXfXG.F.`.qXiXuXuXpXuXaX3Xf v ;.$.M A Z S A Z A n ;.2.fXfXfXfXfXfXfXfXfX",
"fXfXfXfXfXfXfXfXfXfXfXfXP fXfXG.K.{.{ 6.dXiXtXpX9X2X2X~ d $.$.c Z Z A K D P b 2.2.fXfXfXfXfXfXfXfXfX",
"fXfXfXfXfXfXfXfXfXfXfXfXM fXfXG.K.[.1.6.<.dXiXuXuXuXsXuX~ z U c A S c d d g c -.;.fXfXfXfXfXfXfXfXfX",
"fXfXfXfXfXfXfXfXfXfXfXfXD s fXS.A.[.q.q./.(.'.yXuXuXaXpXaX~ Y F S k y >X<XU.g U fXfXfXfXfXfXfXfXfXfX",
"fXfXfXfXfXfXfXfXfXfXfXfXn s fX6Xn.[.q.q.(.q.1.].D.H.@.e p r L :.H b N i :XU.z -.fXfXfXfXfXfXfXfXfXfX",
"fXfXfXfXfXfXfXfXfXfXfXfXk [.6XG.n.I.r. X^. Xq.S.H.8Xa X O % & F U -.H X v.<Xh fXfXfXfXfXfXfXfXfXfXfX",
"fXfXfXfXfXfXfXfXfXfXfXfXL P.fXV.n.c.7.^.|.^.[ 4X9XsXp 7 8 , & # j Y H d >X5XfXfXfXfXfXfXfXfXfXfXfXfX",
"fXfXfXfXfXfXfXfXfXfXfXfXI l fXc.C.u.X.' >.7.m uXsXpX5   : 5 3 4 ..N.B.x.fXfXfXfXfXfXfXfXfXfXfXfXfXfX",
"fXfXfXfXfXfXfXfXfXfXfXfXx m fXV.C.o.i.| G <.[ tXuXl.p L.u ; 5 ..k.d.m.M.fXfXfXfXfXfXfXfXfXfXfXfXfXfX",
"fXfXfXfXfXfXfXfXfXfXfXfXo $ fXfXc.p. .> ] 0.7.sX,X&.wXrX#X; 1 ..k.h.z.M.fXfXfXfXfXfXfXfXfXfXfXfXfXfX",
"fXfXfXfXfXfXfXfXfXfXfXfXG v fXfXb.+.r t $XOXOXtXu.OX;X#X=X+X< } h.d.j.M.fXfXfXfXfXfXfXfXfXfXfXfXfXfX",
"fXfXfXfXfXfXfXfXfXfXfXfX;XXXfXfXP.@.. Q.*X#X*X<X&.-X$X#X+X#X!.l.s.h.d.m.fXfXfXfXfXfXfXfXfXfXfXfXfXfX",
"fXfXfXfXfXfXfXfXfXfXfXfX.X X^.6.1.C &.OX-X#X-XQ.L.=X+X!.I.+XrX*Xz.s.h.k.fXfXfXfXfXfXfXfXfXfXfXfXfXfX",
"fXfXfXfXfXfXfXfXfXfXfXfXoX X0.Y ` 9 Q.=X$X-X&XR.a L.I.!.=XwXeXwX[.a.j.j.fXfXfXfXfXfXfXfXfXfXfXfXfXfX",
"fXfXfXfXfXfXfXfXfXfXfXfX X^.b fXfXfXI.=X-X-XW.` * e *.q.q./. X/.P.} f.d.fXfXfXfXfXfXfXfXfXfXfXfXfXfX",
"fXfXfXfXfXfXfXfXfXfXfXfXfX% % fXfXfX^ _.!.W.T.^ ~ (. X/.|.|.|.%.2 o. .fXfXfXfXfXfXfXfXfXfXfXfXfXfXfX",
"fXfXfXfXfXfXfXfXfXfXfXfXfX9 # fXfXfXfX'.~.T.Y.! r.^./.^. X5.=.} X.O.f.fXfXfXfXfXfXfXfXfXfXfXfXfXfXfX",
"fXfXfXfXfXfXfXfXfXfXfXfXfX+ # fXfXfXE._.~.Y.Y.w U q.q.3.u ; } +.O.O.f.fXfXfXfXfXfXfXfXfXfXfXfXfXfXfX",
"fXfXfXfXfXfXfXfXfXfXfXfXfX= # fXfXfXfXE.R.Y.` E q q , ; < 3 6 ....O. .fXfXfXfXfXfXfXfXfXfXfXfXfXfXfX",
"fXfXfXfXfXfXfXfXfXfXfXfXfXfX= fXfXfXN *.T.` ) C w w , : 3 1 5 5 5 3 fXfXfXfXfXfXfXfXfXfXfXfXfXfXfXfX",
"fXfXfXfXfXfXfXfXfXfXfXfXfXfXx fXfXfX` ) ` ) W R e N e fXfXfXfXfXfXfXfXfXfXfXfXfXfXfXfXfXfXfXfXfXfXfX",
"fXfXfXfXfXfXfXfXfXfXfXfXfXfXv fXfX/ / R V R Q / ( R T fXfXfXfXfXfXfXfXfXfXfXfXfXfXfXfXfXfXfXfXfXfXfX",
"fXfXfXfXfXfXfXfXfXfXfXfXfXfXv fXfX( R B 0 B V R / / R fXfXfXfXfXfXfXfXfXfXfXfXfXfXfXfXfXfXfXfXfXfXfX",
"fXfXfXfXfXfXfXfXfXfXfXfXfXfX- fX( / V V 0 0 V E R / _ / fXfXfXfXfXfXfXfXfXfXfXfXfXfXfXfXfXfXfXfXfXfX",
"fXfXfXfXfXfXfXfXfXfXfXfXfXfX- fX( ( E T 0 fX0 q T / _ / fXfXfXfXfXfXfXfXfXfXfXfXfXfXfXfXfXfXfXfXfXfX",
"fXfXfXfXfXfXfXfXfXfXfXfXfXfX= fXfXB T q fXfXfXfXq e w fXfXfXfXfXfXfXfXfXfXfXfXfXfXfXfXfXfXfXfXfXfXfX",
"fXfXfXfXfXfXfXfXfXfXfXfXfXfX= fXfXE w fXfXfXfXfXfXN V fXfXfXfXfXfXfXfXfXfXfXfXfXfXfXfXfXfXfXfXfXfXfX",
"fXfXfXfXfXfXfXfXfXfXfXfXfXfX= fXfXT fXfXfXfXfXfXfXw e fXfXfXfXfXfXfXfXfXfXfXfXfXfXfXfXfXfXfXfXfXfXfX",
"fXfXfXfXfXfXfXfXfXfXfXfXfXfX# fX@ @ fXfXfXfXfXfXfXfX@ fXfXfXfXfXfXfXfXfXfXfXfXfXfXfXfXfXfXfXfXfXfXfX",
"fXfXfXfXfXfXfXfXfXfXfXfXfXfXfXfXfXfXfXfXfXfXfXfXfXfXfXfXfXfXfXfXfXfXfXfXfXfXfXfXfXfXfXfXfXfXfXfXfXfX",
"fXfXfXfXfXfXfXfXfXfXfXfXfXfXfXfXfXfXfXfXfXfXfXfXfXfXfXfXfXfXfXfXfXfXfXfXfXfXfXfXfXfXfXfXfXfXfXfXfXfX"
};
