/* XPM */
static char *result[] = {
/* columns rows colors chars-per-pixel */
"50 50 230 2 ",
"   c #00001D",
".  c #020017",
"X  c #00000C",
"o  c #000024",
"O  c #0E0026",
"+  c #000B26",
"@  c #01022B",
"#  c #0B002C",
"$  c #000C29",
"%  c #13002B",
"&  c #180429",
"*  c #01142B",
"=  c #001A2B",
"-  c #0D1B2E",
";  c #021727",
":  c #15142B",
">  c #141C2D",
",  c #1B1E2E",
"<  c #1B162E",
"1  c #070634",
"2  c #180337",
"3  c #041931",
"4  c #1C1E31",
"5  c #161A34",
"6  c #231E2E",
"7  c #280835",
"8  c #3A003B",
"9  c #241B32",
"0  c #361B37",
"q  c #2C082A",
"w  c #03222B",
"e  c #19242E",
"r  c #192C32",
"t  c #1A2232",
"y  c #003830",
"u  c #193C32",
"i  c #26262D",
"p  c #242232",
"a  c #2A2231",
"s  c #2B2B35",
"d  c #33253B",
"f  c #332C39",
"g  c #352B33",
"h  c #293437",
"j  c #3A343A",
"k  c #44083D",
"l  c #42283A",
"z  c #453839",
"x  c #56363C",
"c  c #68343B",
"v  c #71373E",
"b  c #652038",
"n  c #72183A",
"m  c #1B4934",
"M  c #0E5033",
"N  c #2E4D37",
"B  c #04743D",
"V  c #1A6E39",
"C  c #266A3B",
"Z  c #52463F",
"A  c #506F3E",
"S  c #75503F",
"D  c #382943",
"F  c #2F3444",
"G  c #290F41",
"H  c #452645",
"J  c #51284A",
"K  c #483446",
"L  c #583848",
"P  c #533352",
"I  c #5E3956",
"U  c #4D3353",
"Y  c #783A41",
"T  c #653C5B",
"R  c #6A3E5C",
"E  c #623757",
"W  c #753F59",
"Q  c #441341",
"!  c #06514F",
"~  c #264747",
"^  c #385B57",
"/  c #32534D",
"(  c #2B7B41",
")  c #287640",
"_  c #3D674F",
"`  c #1D5D62",
"'  c #3E6C63",
"]  c #326C6B",
"[  c #3F7367",
"{  c #2B6C6A",
"}  c #4A4543",
"|  c #57494A",
" . c #5A4853",
".. c #56544C",
"X. c #66554D",
"o. c #6B435D",
"O. c #78425A",
"+. c #6B5955",
"@. c #645455",
"#. c #715E57",
"$. c #724C48",
"%. c #547843",
"&. c #477541",
"*. c #79635D",
"=. c #766358",
"-. c #6E6D4D",
";. c #6E4361",
":. c #724361",
">. c #426D66",
",. c #427369",
"<. c #43776A",
"1. c #746A61",
"2. c #802F3B",
"3. c #833943",
"4. c #842E40",
"5. c #8B434A",
"6. c #964748",
"7. c #85455B",
"8. c #8C485A",
"9. c #874659",
"0. c #934A5A",
"q. c #9B4C5A",
"w. c #984C55",
"e. c #8D594E",
"r. c #A54D4D",
"t. c #A54F56",
"y. c #AC5154",
"u. c #AA535A",
"i. c #B45455",
"p. c #BA5654",
"a. c #BC5A58",
"s. c #B95757",
"d. c #966949",
"f. c #8A7559",
"g. c #91695C",
"h. c #A76B57",
"j. c #BB625C",
"k. c #B26B5E",
"l. c #AF7752",
"z. c #846C62",
"x. c #8A7565",
"c. c #9A796A",
"v. c #BC6E62",
"b. c #BC7666",
"n. c #AA6F65",
"m. c #C05A58",
"M. c #C27465",
"N. c #C37B69",
"B. c #C47A69",
"V. c #C26C60",
"C. c #0F863F",
"Z. c #21833F",
"A. c #298944",
"S. c #2B9648",
"D. c #328B4A",
"F. c #25A84E",
"G. c #34B34F",
"H. c #38AA54",
"J. c #2AB552",
"K. c #35B251",
"L. c #3AB452",
"P. c #39B953",
"I. c #2DA84E",
"U. c #379462",
"Y. c #119F48",
"T. c #5A8144",
"R. c #6A944B",
"E. c #4CBB54",
"W. c #55BA55",
"Q. c #68AA51",
"!. c #488965",
"~. c #3DC056",
"^. c #7DCD5D",
"/. c #75C55A",
"(. c #69C058",
"). c #E7AE25",
"_. c #F5D51C",
"`. c #FDEA00",
"'. c #FFF200",
"]. c #FFF01C",
"[. c #F7DD25",
"{. c #FFEF35",
"}. c #FEEB2F",
"|. c #86BC59",
" X c #928265",
".X c #B79B75",
"XX c #AA876C",
"oX c #BCA57B",
"OX c #D9945F",
"+X c #DB995C",
"@X c #D08C5C",
"#X c #DDA05D",
"$X c #E2A65D",
"%X c #E8B759",
"&X c #C7836C",
"*X c #D98C63",
"=X c #DC9361",
"-X c #DE9961",
";X c #C98972",
":X c #E49B64",
">X c #E69867",
",X c #C4A67A",
"<X c #E9A365",
"1X c #EEAB67",
"2X c #8AC75D",
"3X c #91CE5F",
"4X c #88D361",
"5X c #9CDB64",
"6X c #95D662",
"7X c #A0DB65",
"8X c #9DE066",
"9X c #F4D74D",
"0X c #EDC759",
"qX c #F1CD54",
"wX c #FDE947",
"eX c #FFF443",
"rX c #FFF267",
"tX c #D8B987",
"yX c #D5C493",
"uX c #EFDB9E",
"iX c #E6C792",
"pX c #ECDBA7",
"aX c #F5DEA6",
"sX c #FFF5AB",
"dX c #FFF6B4",
"fX c #F2E4AD",
"gX c #FFFAD9",
"hX c #FFFFFD",
"jX c #FFFDF6",
"kX c None",
/* pixels */
"kXkXn.kXkXkXkXkXkXkXkXkXkXkXkXkXkXkXkXkXkXkXkXkXkXkXkXkXkXkXkXkXkXkXkXkXkXkXkXkXkXkXkXkXkXkXkXkXkXkX",
"kXkXc.c.kXkXkXkXkXkXkX=XOXkXkXkXkXkXkXkXkXkXkXkXkXkXkXkXkXkXkXkXkXkXkXkXkXkXkXkXkXkXkXkXkXkXkXkXkXkX",
"kXkXc.;XkXkXkXkXOX<X<X:X<XOX>XkXkXkXkXkXkXkXkXkXkXkXkXkXkXkXkXkXkXkXkXkXkXkXkXkXkXkXkXkXkXkXkXkXkXkX",
"kXkXkXkXkXkXkX=XOXOXOX-XwX0X>XOXkXkXkXkXkXkXkXkXkXkXkXkXkXkXkXkXkXkXkXkXkXkXkXkXkXkXkXkXkXkXkXkXkXkX",
"kXkXkXkXkXkXkXkXkXkXkX<XwX{.%X>XkXkXkXkXkXkXkXkXkXkXkXkXkXkXkXkXkXkXkXkXkXkXkXkXkXkXkXkXkXkXkXkXkXkX",
"kXkXkXkXkXkXkXkX=X=X+XwXeXwX%X:XkXkXkXkXkXkXkXkXkXkXkXkXkXkXkXkXkXkXkXkXkXkXkXkXkXkXkXkXkXkXkXkXkXkX",
"kXkXkXkXkXkXkXOX<X>X+X9X#X:X*X:XkXkXkXkXkXkXkXkXkXkXkXkXkXkXkXkXkXkXkXkXkXkXkXkXkXkXkXkXkXkXkXkXkXkX",
"kXkXkXkXkXkXOX:XOX0X9X*X=X*X=X<XkXkXkXkXkXkXkXkXkXkXkXkXkXkXkXkXkXkXkXkXkXkXkXkXkXkXkXkXkXkXkXkXkXkX",
"kXkXkXkXkX+X<X#XwXeXwX*X:XkXOXOXkXkXkXkXkXkXkXo kXkXkXkXkXkXkXkXkXkXkXkXkXkXkXkXkXkXkXkXkXkXkXkXkXkX",
"kXkXkXkXkX@X*X9XwX{.%X*X<XkX-XOXkXkXkXkXkXkX+ $.p + kXkXkXkXkXkXkXkXkXkXkXkXkXkXkXkXkXkXkXkXkXkXkXkX",
"kXkXkXkXkXh.%XeX}.rX%X*X<XS kXkXkXkXkXkXkXkX. g.B.b * g kXkXkXkXkXkXkXkXkXkXkXkXkXkXkXkXkXkXkXkXkXkX",
"kXkXkXkX  k.0X'.fXgX`.*X:Xl.kXkXkXkXkXkXkXkXo g.&Xj.c @ p kXkXkXkXkXkXkXkXkXkXkXkXkXkXkXkXkXkXkXkXkX",
"kXkXkXkXo l.1X`.gXjX{.qX=X@X+ kXkXkXkXkXkXo j &Xb.N.a.$.+ 4 kXkXkXkXkXkXkXkXkXkXkXkXkXkXkXkXkXkXkXkX",
"kXkXkXkXo l.*X[.dXgXsX`.$XOXe.kXkXkXkXkXkX5 h.&XN.a.B.8.P 6 - kXkXkXkXkXkXkXkXO kXkXkXkXkXkXkXkXkXkX",
"kXkXkXkXkXs @X0X'.sXjX].9XOXd.kXkXkXkXkXO $.;XN.b.M.n.R P ; a 5 = kXkXkXkX@ @ Q.%.o kXkXkXkXkXkXkXkX",
"kXkXkXkXkXo e.1X'.sXhXsX_.&Xs   @ B M & + $.;Xb.a.k.o.P a Y i.9.D 4 > kXo %.6X8X%.kXkXkXkXkXkXkXkXkX",
"kXkXkXkXkX  d.>X_.dXhXdX).b.o R.2X4X4X&.M 9 k.V.p.W E c 6.7.i.9.;.P ; 4 6 Q.^._ + kXkXkXkXkXkXkXkXkX",
"kXkXkXkXkXo d.>X0XhXdXuX+X$.* R.3X5X5X/.J.B n p.9.8.p.t.8.p.0.E D D a o N E.C.o kXkXkXkXkXkXkXkXkXkX",
"kXkXkXkXkXkX  ,XpXpXfXaXtXg w + h N |.5XE.U.` $.i.p.i.i.t.W D 3 v Y y.q.7 M ) kXkXkXkXkXkXkXkXkXkXkX",
"kXkXkXkXkXkX;  X.XpXfXaXtX-.kXkXkXo &.5X/.F.!.! 2.p.i.q.O.o.6.t.q.7.y.q.T H o kXkXkXkXkXkXkXkXkXkXkX",
"kXkXkXkXkXkXe   yXfXiXoXiX1.kXkXkXh @ 2X/.J.!.{ +.p.i.i.i.p.u.q.q.t.0.T T R t kXkXkXkXkXkXkXkXkXkXkX",
"kXkXkXkXkXkXo oXiX,Xz | aX XkXkXkXw O A /.F.!.{ *.p.p.p.p.p.i.t.i.O. .;.o.o.r > kXkXkXkXkXkXkXkXkXkX",
"kXkXkXkXkXkX+ f.XXZ g ,Xf.g kXkX$ g 0 N (.I.<.,.t w.i.u.y.u.0.;.D D k 8 8 8 & < kXkXkXkXkXkXkXkXkXkX",
"kXkXkXkXkXkX> o     s i o $ kXkXa b.b.& C.F.] ! q y.y.9.o.I H 7 O o V Z.Z.Z.D.y # kXkXkXkXkXkXkXkXkX",
"kXkXkXkXkXkXkXp 5 |  . .f kXkXkXc ;XB.5.T.1.*.c i.p.y.O.D > = ~ C I.E.E.J.^.6XW.D.@ kXkXkXkXkXkXkXkX",
"kXkXkXkXkXkXkXkXp @.x.x.f kXkXkX} ;X;X;XB.V.a.j.p.m.q.1 . > ^ !.L.L.I.H.I.W.6X5X4X) @ kXkXkXkXkXkXkX",
"kXkXkXkXkXkXkXkXt @.x.c.f kXkXkXZ ;Xv.v.;X;X&Xb.s.i.c ! ^ ' <.<.H.L.L.L.P.J.E.^.5X2X- kXkXkXkXkXkXkX",
"kXkXkXkXkXkXkXkXs @.x.c.f kXkXkXz B.B.j.B.B.N.j.a.r.; h F ^ ,.>.U.H.S.m m N S.F.E.6XR.o kXkXkXkXkXkX",
"kXkXkXkXkXkXkXkX* | *.c.f kXkXkX$ x k.B.M.i.i.i.p.y.e O ~ ^ [ [ ,.F # 4 % % & e B E.Q.1 kXkXkXkXkXkX",
"kXkXkXkXkXkXkXkX$ 2 } | 4 % kXkX> D 5 c 8.i.i.i.p.0.d $ F [ [ [ [ / ' [ / : kXkX& S.J.) O kXkXkXkXkX",
"kXkXkXkXkXkXkXkX< %.w   C L.m kX; P 8.W O.8.9.t.w.O.T 0 ~ ,.,.[ >.<.,.,.' O kXkXkX2 P.A.O kXkXkXkXkX",
"kXkXkXkXkXkXkX# m 5X2XT.= L.S.kXw 3.m.i.p.p.s.p.p.p.8.T 0 w >.<.,.,.>.>.~ : kXkXkX< S.m % kXkXkXkXkX",
"kXkXkXkXkXkXkX% A.^.7X5Xg S.C kX; Y Y o 5.p.i.i.i.p.p.O.T H h ^ [ ,.[ ~ o e kXkXkXe % kXkXkXkXkXkXkX",
"kXkXkXkXkXkXkX% S.P.^.4XR.o : e 6 $ = Y y.i.p.p.p.t.O.R R R T k ^ <.' J E t kXkXkXkXkXkXkXkXkXkXkXkX",
"kXkXkXkXkXkXkXO A.P.F.J.S.% r 9 3 Y r.m.a.a.m.m.u.T T T R R T :. ...R T :.K o % kXkXkXkXkXkXkXkXkXkX",
"kXkXkXkXkXkXkXkXr K.P.L.( % e $ o & o c 2.4.3.2.J T T R R R R R H Q J E P 8 M ( % kXkXkXkXkXkXkXkXkX",
"kXkXkXkXkXkXkXkXe m m m # s kXf.XX.X.Xh -.X.K -.X.K } 1 < & # f K } s | z & A.~.( % kXkXkXkXkXkXkXkX",
"kXkXkXkXkXkXkXkXkX% & 2 F e o X.+.=.x.XXtX,X XtX.X .+.*.@.=.#.g c.XXX.=.e./ K.L.L.r kXkXkXkXkXkXkXkX",
"kXkXkXkXkXkXkXkXkXe p z.#.o w @ G 2 o p > , - > > > ; =...+.+.o @.#.z + 9 u L.L.K.r kXkXkXkXkXkXkXkX",
"kXkXkXkXkXkXkXkXkX- > z.*.o x 9.7.7.W U P P E I E E E 7 9 # > | F - K j @ 4 D.H.) % kXkXkXkXkXkXkXkX",
"kXkXkXkXkXkXkXkXkXkX> o o = L p.p.m.a.t.u.q.T o.R R R o.o.0 F x.#.X z.*.= $ & % % kXkXkXkXkXkXkXkXkX",
"kXkXkXkXkXkXkXkXkXkXkXkXkXkX* = l 5.5.6.6.5.T R R R E P J * z.#.j - F +.c.K ; kXkXkXkXkXkXkXkXkXkXkX",
"kXkXkXkXkXkXkXkXkXkXkXkXkXkXkXkX* $ * $ + 3 d d d d t ; kX+ X.z.+ 6 $ p X.x.* kXkXkXkXkXkXkXkXkXkXkX",
"kXkXkXkXkXkXkXkXkXkXkXkXkXkXkXkXkXkX6 6 a 6 ; ; ; ; > kXkXkXO $ 4 kX4 - o o kXkXkXkXkXkXkXkXkXkXkXkX",
"kXkXkXkXkXkXkXkXkXkXkXkXkXkXkXkXkXkX> > kXkXkXkXkXkXkXkXkXkXkXkXkXkX> t t kXkXkXkXkXkXkXkXkXkXkXkXkX",
"kXkXkXkXkXkXkXkXkXkXkXkXkXkXkXkXkX> 4 > kXkXkXkXkXkXkXkXkXkXkXkXkXkX> 4 > kXkXkXkXkXkXkXkXkXkXkXkXkX",
"kXkXkXkXkXkXkXkXkXkXkXkXkXkXkXkX4 > > kXkXkXkXkXkXkXkXkXkXkXkXkXkXkX> > > > kXkXkXkXkXkXkXkXkXkXkXkX",
"kXkXkXkXkXkXkXkXkXkXkXkXkXkXkXkXkXkXkXkXkXkXkXkXkXkXkXkXkXkXkXkXkXkXkXkXkXkXkXkXkXkXkXkXkXkXkXkXkXkX",
"kXkXkXkXkXkXkXkXkXkXkXkXkXkXkXkXkXkXkXkXkXkXkXkXkXkXkXkXkXkXkXkXkXkXkXkXkXkXkXkXkXkXkXkXkXkXkXkXkXkX",
"kXkXkXkXkXkXkXkXkXkXkXkXkXkXkXkXkXkXkXkXkXkXkXkXkXkXkXkXkXkXkXkXkXkXkXkXkXkXkXkXkXkXkXkXkXkXkXkXkXkX"
};
