/* XPM */
static char *result[] = {
/* columns rows colors chars-per-pixel */
"50 50 230 2 ",
"   c #00001D",
".  c #020017",
"X  c #00000C",
"o  c #000024",
"O  c #0E0026",
"+  c #000B26",
"@  c #01022B",
"#  c #0B002C",
"$  c #000C29",
"%  c #13002B",
"&  c #180429",
"*  c #01142B",
"=  c #001A2B",
"-  c #0D1B2E",
";  c #021727",
":  c #15142B",
">  c #141C2D",
",  c #1B1E2E",
"<  c #1B162E",
"1  c #070634",
"2  c #180337",
"3  c #041931",
"4  c #1C1E31",
"5  c #161A34",
"6  c #231E2E",
"7  c #280835",
"8  c #3A003B",
"9  c #241B32",
"0  c #361B37",
"q  c #2C082A",
"w  c #03222B",
"e  c #19242E",
"r  c #192C32",
"t  c #1A2232",
"y  c #003830",
"u  c #193C32",
"i  c #26262D",
"p  c #242232",
"a  c #2A2231",
"s  c #2B2B35",
"d  c #33253B",
"f  c #332C39",
"g  c #352B33",
"h  c #293437",
"j  c #3A343A",
"k  c #44083D",
"l  c #42283A",
"z  c #453839",
"x  c #56363C",
"c  c #68343B",
"v  c #71373E",
"b  c #652038",
"n  c #72183A",
"m  c #1B4934",
"M  c #0E5033",
"N  c #2E4D37",
"B  c #04743D",
"V  c #1A6E39",
"C  c #266A3B",
"Z  c #52463F",
"A  c #506F3E",
"S  c #75503F",
"D  c #382943",
"F  c #2F3444",
"G  c #290F41",
"H  c #452645",
"J  c #51284A",
"K  c #483446",
"L  c #583848",
"P  c #533352",
"I  c #5E3956",
"U  c #4D3353",
"Y  c #783A41",
"T  c #653C5B",
"R  c #6A3E5C",
"E  c #623757",
"W  c #753F59",
"Q  c #441341",
"!  c #06514F",
"~  c #264747",
"^  c #385B57",
"/  c #32534D",
"(  c #2B7B41",
")  c #287640",
"_  c #3D674F",
"`  c #1D5D62",
"'  c #3E6C63",
"]  c #326C6B",
"[  c #3F7367",
"{  c #2B6C6A",
"}  c #4A4543",
"|  c #57494A",
" . c #5A4853",
".. c #56544C",
"X. c #66554D",
"o. c #6B435D",
"O. c #78425A",
"+. c #6B5955",
"@. c #645455",
"#. c #715E57",
"$. c #724C48",
"%. c #547843",
"&. c #477541",
"*. c #79635D",
"=. c #766358",
"-. c #6E6D4D",
";. c #6E4361",
":. c #724361",
">. c #426D66",
",. c #427369",
"<. c #43776A",
"1. c #746A61",
"2. c #802F3B",
"3. c #833943",
"4. c #842E40",
"5. c #8B434A",
"6. c #964748",
"7. c #85455B",
"8. c #8C485A",
"9. c #874659",
"0. c #934A5A",
"q. c #9B4C5A",
"w. c #984C55",
"e. c #8D594E",
"r. c #A54D4D",
"t. c #A54F56",
"y. c #AC5154",
"u. c #AA535A",
"i. c #B45455",
"p. c #BA5654",
"a. c #BC5A58",
"s. c #B95757",
"d. c #966949",
"f. c #8A7559",
"g. c #91695C",
"h. c #A76B57",
"j. c #BB625C",
"k. c #B26B5E",
"l. c #AF7752",
"z. c #846C62",
"x. c #8A7565",
"c. c #9A796A",
"v. c #BC6E62",
"b. c #BC7666",
"n. c #AA6F65",
"m. c #C05A58",
"M. c #C27465",
"N. c #C37B69",
"B. c #C47A69",
"V. c #C26C60",
"C. c #0F863F",
"Z. c #21833F",
"A. c #298944",
"S. c #2B9648",
"D. c #328B4A",
"F. c #25A84E",
"G. c #34B34F",
"H. c #38AA54",
"J. c #2AB552",
"K. c #35B251",
"L. c #3AB452",
"P. c #39B953",
"I. c #2DA84E",
"U. c #379462",
"Y. c #119F48",
"T. c #5A8144",
"R. c #6A944B",
"E. c #4CBB54",
"W. c #55BA55",
"Q. c #68AA51",
"!. c #488965",
"~. c #3DC056",
"^. c #7DCD5D",
"/. c #75C55A",
"(. c #69C058",
"). c #E7AE25",
"_. c #F5D51C",
"`. c #FDEA00",
"'. c #FFF200",
"]. c #FFF01C",
"[. c #F7DD25",
"{. c #FFEF35",
"}. c #FEEB2F",
"|. c #86BC59",
" X c #928265",
".X c #B79B75",
"XX c #AA876C",
"oX c #BCA57B",
"OX c #D9945F",
"+X c #DB995C",
"@X c #D08C5C",
"#X c #DDA05D",
"$X c #E2A65D",
"%X c #E8B759",
"&X c #C7836C",
"*X c #D98C63",
"=X c #DC9361",
"-X c #DE9961",
";X c #C98972",
":X c #E49B64",
">X c #E69867",
",X c #C4A67A",
"<X c #E9A365",
"1X c #EEAB67",
"2X c #8AC75D",
"3X c #91CE5F",
"4X c #88D361",
"5X c #9CDB64",
"6X c #95D662",
"7X c #A0DB65",
"8X c #9DE066",
"9X c #F4D74D",
"0X c #EDC759",
"qX c #F1CD54",
"wX c #FDE947",
"eX c #FFF443",
"rX c #FFF267",
"tX c #D8B987",
"yX c #D5C493",
"uX c #EFDB9E",
"iX c #E6C792",
"pX c #ECDBA7",
"aX c #F5DEA6",
"sX c #FFF5AB",
"dX c #FFF6B4",
"fX c #F2E4AD",
"gX c #FFFAD9",
"hX c #FFFFFD",
"jX c #FFFDF6",
"kX c None",
/* pixels */
"kXkXkXkXkXkXkXkXkXkXkXkXkXkXkXkXkXkXkXkXkXkXkXkXkXkXkXkXkXkXkXkXkXkXkXkXkXkXkXkXkXkXkXkXkXkXkXn.kXkX",
"kXkXkXkXkXkXkXkXkXkXkXkXkXkXkXkXkXkXkXkXkXkXkXkXkXkXkXkXkXkXkXkXkXkXkXkXkX=XOXkXkXkXkXkXkXkXc.c.kXkX",
"kXkXkXkXkXkXkXkXkXkXkXkXkXkXkXkXkXkXkXkXkXkXkXkXkXkXkXkXkXkXkXkXkXkXkX<X-X:X:X:X<XOXkXkXkXkX;Xn.kXkX",
"kXkXkXkXkXkXkXkXkXkXkXkXkXkXkXkXkXkXkXkXkXkXkXkXkXkXkXkXkXkXkXkXkXkX=X=X0XwXOXOX-XOXOXkXkXkXkXkXkXkX",
"kXkXkXkXkXkXkXkXkXkXkXkXkXkXkXkXkXkXkXkXkXkXkXkXkXkXkXkXkXkXkXkXkXkX>X0X{.wX<XkXkXkXkXkXkXkXkXkXkXkX",
"kXkXkXkXkXkXkXkXkXkXkXkXkXkXkXkXkXkXkXkXkXkXkXkXkXkXkXkXkXkXkXkXkXkX>X$XwXeXwX+XOXOXkXkXkXkXkXkXkXkX",
"kXkXkXkXkXkXkXkXkXkXkXkXkXkXkXkXkXkXkXkXkXkXkXkXkXkXkXkXkXkXkXkXkXkX#X*X:X#XqX#X>X<XOXkXkXkXkXkXkXkX",
"kXkXkXkXkXkXkXkXkXkXkXkXkXkXkXkXkXkXkXkXkXkXkXkXkXkXkXkXkXkXkXkXkXkX<X=X=X=X*X9X0XOX>XOXkXkXkXkXkXkX",
"kXkXkXkXkXkXkXkXkXkXkXkXkXkXkXkXkXkXkXkXkXkXkXkXkXkXo kXkXkXkXkXkXkXOXOXkX:XOXwXeXwX-X1X-XkXkXkXkXkX",
"kXkXkXkXkXkXkXkXkXkXkXkXkXkXkXkXkXkXkXkXkXkXkXkX+ p | $ kXkXkXkXkXkXOX-XkX<X@X$X{.eX9X*X@XkXkXkXkXkX",
"kXkXkXkXkXkXkXkXkXkXkXkXkXkXkXkXkXkXkXkXkXkXa * b B.h.. kXkXkXkXkXkXkXkX$.-X@X%XrX}.wX%Xh.kXkXkXkXkX",
"kXkXkXkXkXkXkXkXkXkXkXkXkXkXkXkXkXkXkXkXkXa $ c j.&Xg.o kXkXkXkXkXkXkXkX@XOX*X`.gXdX'.0Xh.. kXkXkXkX",
"kXkXkXkXkXkXkXkXkXkXkXkXkXkXkXkXkXkXkXkX4 $ v j.B.B.&Xj o kXkXkXkXkXkXo @X=XqX{.jXgX`.1Xl.o kXkXkXkX",
"kXkXkXkXkXkXkXkXkXkXo kXkXkXkXkXkXkXkX- 6 P 0.&Xj.B.&Xh.5 kXkXkXkXkXkXd.=X$X'.sXgXsX[.*Xl.o kXkXkXkX",
"kXkXkXkXkXkXkXkXo %.Q.@ @ kXkXkXkX= > a * P R n.v.b.B.;X$.o kXkXkXkXkXd.*XqX].jXsX'.0X*Xs kXkXkXkXkX",
"kXkXkXkXkXkXkXkXkX%.7X6X%.@ kX, 4 d 7.i.3.9 P o.n.a.&X;X$.o & M B $   i &X_.sXhXsX'.<Xe.o kXkXkXkXkX",
"kXkXkXkXkXkXkXkXkXo _ ^.Q.9 > = I ;.9.i.7.w.c L W p.M.v.7 y &.4X4X2XR.o XX).dXhXdX[.-Xe.o kXkXkXkXkX",
"kXkXkXkXkXkXkXkXkXkX  C.W.N @ a d D I 0.s.0.t.p.8.8.m.n B J.^.5X6X3XR.* S +XuXdXhX0X=Xd.o kXkXkXkXkX",
"kXkXkXkXkXkXkXkXkXkXkX( M 2 w.y.Y c 3 D R t.i.i.p.i.$.` H.E.6X|.N h   w l yXfXfXpXuXtX. kXkXkXkXkXkX",
"kXkXkXkXkXkXkXkXkXkXkXo H T q.y.7.t.r.w.O.O.w.i.p.2.! !.F./.5XA + kXkXkX$.1XfXfXpX.X X* kXkXkXkXkXkX",
"kXkXkXkXkXkXkXkXkXkXkXr o.o.T 0.t.q.q.i.s.i.i.i.p.+.{ !.F.^.^.@ h kXkXkXf.iXoXiXfXtX  e kXkXkXkXkXkX",
"kXkXkXkXkXkXkXkXkXkX> r o.o.o. .O.u.q.i.s.s.p.s.m.=.{ !.F.(.%.o - kXkXkX XaXZ z tXiX,X  kXkXkXkXkXkX",
"kXkXkXkXkXkXkXkXkXkX< % 8 8 8 k d K o.0.u.y.y.i.r.e [ <.I.(.N 0 s $ kXkXf f.oXh j XXf.o kXkXkXkXkXkX",
"kXkXkXkXkXkXkXkXkX# y A.V Z.A.V @ O 7 H I T 9.u.i.q ! ] U.C.& M.b.a kXkX+ o p f o o @ e kXkXkXkXkXkX",
"kXkXkXkXkXkXkXkX@ A.Q.6X4XJ.P.L.I.C ~ = > D O.i.p.y.c *.1.-.e.N.;XZ kXkXkXg  .@.} t p kXkXkXkXkXkXkX",
"kXkXkXkXkXkXkX@ ) 4X8X5XW.J.K.H.L.P.<.' : . 1 0.p.p.j.a.v.&X;X&X&Xx kXkXkXf x.z.@.p kXkXkXkXkXkXkXkX",
"kXkXkXkXkXkXkX- 2X5X^.W.F.P.L.P.K.K.[ <.' / ! c i.s.b.&X&X;Xv.v.;X| kXkXkXf  Xc.@.p kXkXkXkXkXkXkXkX",
"kXkXkXkXkXkX@ R.6XE.F.S.N m m S.H.!.[ [ ^ F h * r.a.v.M.b.N.j.N.&Xl kXkXkXf c.x.+.a kXkXkXkXkXkXkXkX",
"kXkXkXkXkXkX1 W.E.B p & 2 # p # s ,.[ ' ^ ~ # e y.p.i.i.s.M.&Xk.x $ kXkXkXf c.#. .* kXkXkXkXkXkXkXkX",
"kXkXkXkXkXO ) K.S.& kXkX: / ,.' / [ [ ,.[ F ; f w.i.i.i.i.8.c 4 d - kXkX% 4 } | 2 * kXkXkXkXkXkXkXkX",
"kXkXkXkXkXO ( L.% kXkXkXO ' ,.,.,.,.>.,.,.~ 0 E O.q.t.8.8.O.O.7.U ; kXm L.)   w %.: kXkXkXkXkXkXkXkX",
"kXkXkXkXkX# N S.: kXkXkX: ~ ,.,.[ ,.<.' w 0 T 0.p.p.p.p.p.p.i.m.5.w kXA.L.3 %.2X6XN # kXkXkXkXkXkXkX",
"kXkXkXkXkXkXkX% r kXkXkXe o ~ [ ,.[ ^ F H I O.s.s.i.s.i.a.3.o Y Y = kXC S.g 6X7X4XA.O kXkXkXkXkXkXkX",
"kXkXkXkXkXkXkXkXkXkXkXkXt E J ' <.^ Q T R T R W t.p.i.i.i.i.v = $ 6 > < @ Q.4X/.K.S.% kXkXkXkXkXkXkX",
"kXkXkXkXkXkXkXkXkXkX& o K :.R o.}  .R o.R R R T R u.m.p.a.m.a.r.v = 6 r & S.J.J.P.A.# kXkXkXkXkXkXkX",
"kXkXkXkXkXkXkXkXkX% ( M 7 P E J Q H T o.R R R T R J 4.3.4.4.c o & o $ e % C L.P.K.r kXkXkXkXkXkXkXkX",
"kXkXkXkXkXkXkXkX% ( P.S.& j  .g } K f # 2 : : K H X.-.Z ..-.F .X.XXXf.kXs # m m m , kXkXkXkXkXkXkXkX",
"kXkXkXkXkXkXkXkXr L.L.G.} *.=.X.XXc.g =.+.@.z.@. ..XtXc.,XtXXXf.=.=.| @ e K 2 % & kXkXkXkXkXkXkXkXkX",
"kXkXkXkXkXkXkXkXr H.P.H.u 9   j #.+.o +.+...=.= > > > - < , i   1 G 1 =   =.z.s - kXkXkXkXkXkXkXkXkX",
"kXkXkXkXkXkXkXkX& C H.D.4 $ z z - j | > @ 0 7 I E I I I P P U R 7.7.7.x o =.*.t > kXkXkXkXkXkXkXkXkX",
"kXkXkXkXkXkXkXkXkX& % & $ - *.z.X =.x.j 0 ;.O.R R R R T q.u.u.a.m.p.p.L = o @ > kXkXkXkXkXkXkXkXkXkX",
"kXkXkXkXkXkXkXkXkXkXkX= K x.+.j * j #.z.$ U P I R R R R 5.6.5.5.6.l = * kXkXkXkXkXkXkXkXkXkXkXkXkXkX",
"kXkXkXkXkXkXkXkXkXkXkX* z.X.p * 4 $ z.X.+ kX; 4 d d d d 3 $ $ * + * kXkXkXkXkXkXkXkXkXkXkXkXkXkXkXkX",
"kXkXkXkXkXkXkXkXkXkXkXkX@ @ - 4 kX4 $ o kXkXkX> = = = ; 6 9 6 6 kXkXkXkXkXkXkXkXkXkXkXkXkXkXkXkXkXkX",
"kXkXkXkXkXkXkXkXkXkXkXkXkXt 4 > kXkXkXkXkXkXkXkXkXkXkXkXkXkX> > kXkXkXkXkXkXkXkXkXkXkXkXkXkXkXkXkXkX",
"kXkXkXkXkXkXkXkXkXkXkXkXkX> 4 , kXkXkXkXkXkXkXkXkXkXkXkXkXkX> 4 > kXkXkXkXkXkXkXkXkXkXkXkXkXkXkXkXkX",
"kXkXkXkXkXkXkXkXkXkXkXkX> > > > kXkXkXkXkXkXkXkXkXkXkXkXkXkXkX4 > > kXkXkXkXkXkXkXkXkXkXkXkXkXkXkXkX",
"kXkXkXkXkXkXkXkXkXkXkXkXkXkXkXkXkXkXkXkXkXkXkXkXkXkXkXkXkXkXkXkXkXkXkXkXkXkXkXkXkXkXkXkXkXkXkXkXkXkX",
"kXkXkXkXkXkXkXkXkXkXkXkXkXkXkXkXkXkXkXkXkXkXkXkXkXkXkXkXkXkXkXkXkXkXkXkXkXkXkXkXkXkXkXkXkXkXkXkXkXkX",
"kXkXkXkXkXkXkXkXkXkXkXkXkXkXkXkXkXkXkXkXkXkXkXkXkXkXkXkXkXkXkXkXkXkXkXkXkXkXkXkXkXkXkXkXkXkXkXkXkXkX"
};
