/* XPM */
static char *_8df65daf50641dd80968c6efdd071a1cTytArt6yUzuh7JZ[] = {
/* columns rows colors chars-per-pixel */
"50 50 198 2 ",
"   c None",
".  c #660017",
"X  c #6A0026",
"o  c #710034",
"O  c #750039",
"+  c #791C3E",
"@  c #7C2C44",
"#  c #732A46",
"$  c #7E3447",
"%  c #793A43",
"&  c #7E3D4A",
"*  c #7E3648",
"=  c #783656",
"-  c #763C63",
";  c #7F444D",
":  c #7B4956",
">  c #7C4762",
",  c #785363",
"<  c #82364A",
"1  c #83434C",
"2  c #85494F",
"3  c #844D52",
"4  c #824B5E",
"5  c #874751",
"6  c #944F5C",
"7  c #8A5556",
"8  c #875D56",
"9  c #8A5D56",
"0  c #8A575F",
"q  c #8B5C5B",
"w  c #875559",
"e  c #915D5D",
"r  c #93585A",
"t  c #916E4C",
"y  c #8D615A",
"u  c #94635D",
"i  c #956D59",
"p  c #9A755D",
"a  c #9A755B",
"s  c #A2755A",
"d  c #814960",
"f  c #855664",
"g  c #9C5662",
"h  c #915D60",
"j  c #A35F69",
"k  c #8F6767",
"l  c #966361",
"z  c #936C61",
"x  c #976B6A",
"c  c #957566",
"v  c #9A7265",
"b  c #9B7A6A",
"n  c #9C776B",
"m  c #927C75",
"M  c #A56D6B",
"N  c #A86F6D",
"B  c #A47C6D",
"V  c #A07B60",
"C  c #AE6471",
"Z  c #B56C76",
"A  c #BD6F7D",
"S  c #B06673",
"D  c #AF7472",
"F  c #A57D71",
"G  c #BC707A",
"H  c #A7885D",
"J  c #B4845E",
"K  c #AD915B",
"L  c #BDA55F",
"P  c #B9A050",
"I  c #AA8467",
"U  c #B58B6B",
"Y  c #B98E6C",
"T  c #BD8C64",
"R  c #B79965",
"E  c #A38472",
"W  c #A98474",
"Q  c #AC8B78",
"!  c #AF8976",
"~  c #B28B74",
"^  c #B38D7B",
"/  c #B68B78",
"(  c #AC927B",
")  c #A9957B",
"_  c #B3927D",
"`  c #BC9C74",
"'  c #AC9568",
"]  c #C1955B",
"[  c #C7AB59",
"{  c #D1BB59",
"}  c #C29462",
"|  c #C59B63",
" . c #C59D68",
".. c #C89F77",
"X. c #C0A562",
"o. c #CCAD66",
"O. c #C7AA6C",
"+. c #CBB365",
"@. c #CEBA63",
"#. c #CDB76B",
"$. c #D2BB6A",
"%. c #D0B367",
"&. c #C6A074",
"*. c #C9A579",
"=. c #CDAA7A",
"-. c #CCB877",
";. c #D4BC76",
":. c #D5C265",
">. c #D5C36A",
",. c #DAC66A",
"<. c #DCC86A",
"1. c #DBC875",
"2. c #DBCC7E",
"3. c #E1CF76",
"4. c #C17180",
"5. c #9A8882",
"6. c #A69685",
"7. c #A59488",
"8. c #BA9881",
"9. c #B89680",
"0. c #B6A287",
"q. c #BAA589",
"w. c #B7A68A",
"e. c #B4A890",
"r. c #BDB195",
"t. c #C59489",
"y. c #C69789",
"u. c #CE9491",
"i. c #D19693",
"p. c #C9A58D",
"a. c #CDAC8B",
"s. c #C7AF88",
"d. c #D0AE87",
"f. c #C1B08F",
"g. c #D6B98D",
"h. c #CDAF90",
"j. c #D1AE91",
"k. c #C8B899",
"l. c #D5B594",
"z. c #DBBD93",
"x. c #D2BD9B",
"c. c #D5BA91",
"v. c #DAC889",
"b. c #DFD184",
"n. c #DED28C",
"m. c #D1C19E",
"M. c #DBC59A",
"N. c #DDCA9B",
"B. c #D6C192",
"V. c #E3CC8A",
"C. c #E2C59D",
"Z. c #E5CB9D",
"A. c #E4DB9A",
"S. c #E3D68A",
"D. c #E9E19C",
"F. c #CDC5A4",
"G. c #D4C5A2",
"H. c #DCC3A4",
"J. c #D4CBA5",
"K. c #DBCBA5",
"L. c #D4CEAA",
"P. c #DDD3A4",
"I. c #D5D0A9",
"U. c #DAD4AB",
"Y. c #DDD9AF",
"T. c #E1C4A4",
"R. c #E5CBA4",
"E. c #E8CEA4",
"W. c #E4CAAB",
"Q. c #E4C6AA",
"!. c #E3D3AC",
"~. c #EAD5AC",
"^. c #E7DCAD",
"/. c #ECDAAE",
"(. c #E5D6A6",
"). c #E3DEB3",
"_. c #F2DDB1",
"`. c #E9E2A6",
"'. c #EAE5AB",
"]. c #EEE8AB",
"[. c #E6E2B5",
"{. c #EBE3B5",
"}. c #EEE9B4",
"|. c #EBE6B9",
" X c #EDEBBB",
".X c #F2E2B5",
"XX c #F3EFB4",
"oX c #F2E5B8",
"OX c #F3ECBC",
"+X c #F3F1BF",
"@X c #F8F1BF",
"#X c #F4F4C2",
"$X c #FAF5C2",
"%X c #F7F8C5",
"&X c #F9FAC6",
"*X c #F9FAC6",
"=X c #FEFFCA",
"-X c #FBFDC8",
/* pixels */
"                                                                                                    ",
"                                                                                                    ",
"                                                                                                    ",
"                                                                                                    ",
"                                                                                                    ",
"                                                                                                    ",
"                                                                                                    ",
"                                                                                                    ",
"                                                                                                    ",
"                                        8 8 8 8 8 8 8                                               ",
"                                      q q q q q q y q q                                             ",
"                                    l l N D N M N D M l                                             ",
"                                  < 6 j Z G Z Z Z G Z j 6 <                                         ",
"                                % 5 g S A 4.A A A 4.A C g 5 %                                       ",
"                              c b ^ t.u.i.i.u.u.u.i.u.y.t.^ b c                                     ",
"                            y ( w.K.W.W.Q.Q.T.H.H.T.H.T.!.K.f.( q                                   ",
"                          X u 0.J. XOXOXOXOX|.{.{.{.{. X#XOXU.q.q X                                 ",
"                        7 q 8.K. X*X*X+X X+X#X$X$X$X$X$X%X#X).G.^ q q                               ",
"                      b ( 0.K.|.$X*X XI.F.U. X%X-X-X%X X[.L.F.J.m.q.( n                             ",
"                    5 E f.J. X$X*X XJ.6.m e.Y.$X=X=X%X).r.5.7.F.).U.f.b 1                           ",
"                  @ 2 _ G. X-X=X*X Xk.m , 6.U.#X-X-X+XU.) : m J.#XOXK.! 1 @                         ",
"                  o * ^ K.OX=X=X*X XL.e.6.k.).#X@XXX`.B.' t ) U.%X#X!.^ 1 @                         ",
"                  . O F m.|.*X*X$X+X[.Y.U.). X#X}.A.b.$.P P -.^.$X XG.! 1 @                         ",
"                  * 3 ^ G.{.*X%X#X#X#X#X#X$X%X+X'.n.>.{ { :.b.].@X|.G.W 1 @                         ",
"                  E ( k.!. X$X$X#X#X$X*X*X*X%X+X'.A.b.2.b.S.D.XX$X[.m.W 1                           ",
"              o v q.G.[. XOX$X$X#X#X#X$X$X$X$X+X X'.'.`.`.'.}.@X$X[.m.W 1 @                         ",
"            + 5 _ G.|.%X%X#X#X#X#X#X#X#X#X#X#X#X+X+X+X+X+X+X#X*X$X[.x.W 1                           ",
"            E _ K.{.$X=X*X$X#X#X#X#X#X#X$X#X#X#X#X%X%X%X%X%X%X-X%X[.x.W 1 @                         ",
"        7 Q r.J.|.+X$X%X%X#X#X#X#X#X#X%X%X%X#X#X#X#X#X#X$X$X%X*X*X{.m.W 1 @                         ",
"      @ 7 9.G. X%X$X#X#X#X+X+X#X#X#X#X#X#X#X#X#X#X#X#X#X#X#X$X*X%X[.m.W 1 @                         ",
"      * e p.!.OX=X*X$X#X#X#X#X$X$X+X X[.[.{. X#X$X#X#X#X#X#X#X$X@X).x.W 1 $                         ",
"      & u p.R..X$X$X%X%X%X%X%X*X%X#X[.N.B.P.{.#X%X$X#X#X#X#X#X@XoX~.x.! 5 &                         ",
"      ; q 8.l.E..XOX#X%X%X$X$X%X*X+X(.d.&.g.^.$X%X$X$X$X$X$XOXoX_.T.j.W 3 ;                         ",
"      ; q B y.l.E./.[.}.{.{.{.}. X[.N.=...g.^.OX#XOXOXOX+XOX{./.T.a._ v 3                           ",
"          B ! 8.l.M.N.N.N.M.M.M.M.M.z.g.z.C.~.{.|.{.{..XoXoX/.R.j.~ E v                             ",
"            z v / ..*.=.=.*.*.&.&.=.g.C.E.~.~.~.~.~.~.~._./.R.l./ u e                               ",
"              : 9 s J } } } | ] ]  .d.z.R.E.R.Z.Z.Z.Z.Z.E.C.h.! q #                                 ",
"                7 u s T | o.+.+.[ o.=.a.j.c.v.V.V.V.V.v.z.j._ B w                                   ",
"                  0 u U O.$.,.<.,.$.O.~ W ` -.1.3.3.1.;.=.~ x k                                     ",
"                  - 4 p R +.>.,.>.+.R i 7 s L @.:.:.@.L H 9 =                                       ",
"                    > z I R o.#.#.R H y : i K X.o.o.X.K a 3                                         ",
"                        v p U Y Y V v     z p I Y Y I p z                                           ",
"                        f 0 0 h q 0 f       0 0 e e 0 0                                             ",
"                          > d 4 4 d           d 4 4 d                                               ",
"                                                                                                    ",
"                                                                                                    ",
"                                                                                                    ",
"                                                                                                    ",
"                                                                                                    ",
"                                                                                                    "
};
