/* XPM */
static char *_0133e0317a64e63a334297fbf6b2b59awAOekkbVPnxePJZ[] = {
/* columns rows colors chars-per-pixel */
"50 50 230 2 ",
"   c None",
".  c #370E3D",
"X  c #4D0E3B",
"o  c #51213E",
"O  c #43243A",
"+  c #316A3E",
"@  c #20663A",
"#  c #54753C",
"$  c #3C004C",
"%  c #3B1E48",
"&  c #2F0042",
"*  c #3B2548",
"=  c #2A2D52",
"-  c #283452",
";  c #2D334C",
":  c #480047",
">  c #471D44",
",  c #570040",
"<  c #621548",
"1  c #452245",
"2  c #4F2C43",
"3  c #682948",
"4  c #73344C",
"5  c #792B50",
"6  c #7A3852",
"7  c #6C304E",
"8  c #1E4A56",
"9  c #1B4757",
"0  c #1C5555",
"q  c #1E5A56",
"w  c #1D545A",
"e  c #1E5A5A",
"r  c #135756",
"t  c #005256",
"y  c #39514A",
"u  c #214C5D",
"i  c #214A58",
"p  c #215E56",
"a  c #22545C",
"s  c #215C5C",
"d  c #27595A",
"f  c #007C43",
"g  c #07665A",
"h  c #007C5E",
"j  c #17785E",
"k  c #1A6B5C",
"l  c #38694B",
"z  c #226357",
"x  c #23635B",
"c  c #256B5C",
"v  c #296B5D",
"b  c #2B685B",
"n  c #2B735D",
"m  c #2D7A5D",
"M  c #27715D",
"N  c #357B58",
"B  c #36764C",
"V  c #1C4D62",
"C  c #1F5961",
"Z  c #225563",
"A  c #235C62",
"S  c #255B6A",
"D  c #214E62",
"F  c #1C6961",
"G  c #246463",
"H  c #266A62",
"J  c #2A6C63",
"K  c #296566",
"L  c #2B7462",
"P  c #2D7C62",
"I  c #257962",
"U  c #327E62",
"Y  c #2C6E72",
"T  c #455645",
"R  c #597C53",
"E  c #486340",
"W  c #786150",
"Q  c #755152",
"!  c #8B3558",
"~  c #88445A",
"^  c #93475C",
"/  c #87585D",
"(  c #9A4A62",
")  c #945162",
"_  c #A34B63",
"`  c #9A6162",
"'  c #00882F",
"]  c #389E39",
"[  c #4F9A3D",
"{  c #5DB52D",
"}  c #5EB535",
"|  c #5CB33C",
" . c #5CB93E",
".. c #59AF3E",
"X. c #61B633",
"o. c #62BA34",
"O. c #65BA3B",
"+. c #63BA2F",
"@. c #69C839",
"#. c #79D63F",
"$. c #14895C",
"%. c #0D8C5B",
"&. c #3D874D",
"*. c #2D944A",
"=. c #3A9B48",
"-. c #2B855F",
";. c #378858",
":. c #2A985C",
">. c #3B9556",
",. c #3D9956",
"<. c #399657",
"1. c #2A8345",
"2. c #3BA65E",
"3. c #2EA05F",
"4. c #1F9260",
"5. c #1C8660",
"6. c #298663",
"7. c #328463",
"8. c #348C64",
"9. c #398D65",
"0. c #378A68",
"q. c #2B9164",
"w. c #349365",
"e. c #3A9366",
"r. c #3E9C66",
"t. c #3C9568",
"y. c #3C9C69",
"u. c #359667",
"i. c #3DA267",
"p. c #469D4C",
"a. c #4A994B",
"s. c #5B994E",
"d. c #449D52",
"f. c #47955A",
"g. c #4D8655",
"h. c #6B8D4A",
"j. c #4CA34C",
"k. c #4DAA49",
"l. c #52AB4A",
"z. c #53A944",
"x. c #48A455",
"c. c #54B452",
"v. c #59B24B",
"b. c #67BA46",
"n. c #438A66",
"m. c #499D66",
"M. c #439E69",
"N. c #469765",
"B. c #549C6C",
"V. c #5D9872",
"C. c #69946C",
"Z. c #4CAB64",
"A. c #4CA56B",
"S. c #4DAB6B",
"D. c #44A567",
"F. c #54AC6C",
"G. c #5BAD6D",
"H. c #57A469",
"J. c #49B366",
"K. c #56B46B",
"L. c #5BB36D",
"P. c #58B969",
"I. c #58AA71",
"U. c #56B371",
"Y. c #5BB571",
"T. c #5BB971",
"R. c #4BB370",
"E. c #64B46F",
"W. c #62AC74",
"Q. c #6AAA79",
"!. c #75AF7C",
"~. c #63B374",
"^. c #66BA73",
"/. c #69BC74",
"(. c #6EBA7B",
"). c #69B778",
"_. c #75BC7B",
"`. c #62AE6F",
"'. c #76C845",
"]. c #5CC26B",
"[. c #67C56D",
"{. c #6AC372",
"}. c #6FCA73",
"|. c #67C174",
" X c #72C476",
".X c #73C37B",
"XX c #7BCB7D",
"oX c #76C979",
"OX c #7BD579",
"+X c #83B17B",
"@X c #81D47E",
"#X c #78BA84",
"$X c #7CC483",
"%X c #79C782",
"&X c #7ED484",
"*X c #86BB89",
"=X c #94B98E",
"-X c #8CBF90",
";X c #8ACC8B",
":X c #85C888",
">X c #94C58E",
",X c #84D383",
"<X c #89DB85",
"1X c #8DDC89",
"2X c #87D687",
"3X c #94DB8C",
"4X c #96D38E",
"5X c #98C997",
"6X c #99D795",
"7X c #8DD093",
"8X c #A8C29F",
"9X c #94E28C",
"0X c #96EC8D",
"qX c #99E596",
"wX c #8BE787",
"eX c #A6E69A",
"rX c #A5F09B",
"tX c #9CC4A3",
"yX c #A6D4A7",
"uX c #BED9B8",
"iX c #AAE7A4",
"pX c #B2E8A6",
"aX c #BBF9AB",
"sX c #BBE7B5",
"dX c #A7F7A1",
"fX c #C7EBB8",
"gX c #CAF6BA",
"hX c #D5F5BE",
"jX c #BDDDC0",
"kX c #D9F6C5",
/* pixels */
"                                              <X                                                    ",
"                                            3XaXXX%X%X%X                                            ",
"                                          OXsXkX$X/.].A.w.                                          ",
"                                    1XOX<X,XfX#X1XXX3.[.y.8.                                        ",
"                          1X9X      dXsX$X$X:X3X,X,X*X~.T.m.7.L                                     ",
"                        iXiX&X7XQ.2XyXyXeXt.U.0XXX(.eXeXOXOXR.6.d                                   ",
"                        gXhX;X$X:Xq.6X,XS.S.D.F.[.S.Y.}.S.e.M.T.w.i                                 ",
"                        }.S.-X*XW.q.2.E.jX(.$.m.OXA.K.K.@X^.e.{.i.p                                 ",
"                      1X:Xu.uXhX~.yXhX*XyX_.5.F.F.8.{.[.`.G.8.w.r.v                                 ",
"                    1XaX>X5X5X4.r.eX6X6.W.:XP..XL.2X.X-.m g m m v 8                                 ",
"                    9X5X(.;X5X5XJ.L.:.:X).F.}.m. XOXF.7X6XW.M b z x 8                               ",
"                pXiX~.I.;X/.gX;X].J.5XfX,XL.).W.e.w.XXsXsX$XM.N 7.8.J                               ",
"                dX-XyXpX(.w.XXZ.U.;XpXpX_.i.!.B.Z.c H.}.[.K.;.P R.y.P 9                             ",
"                1XY.r.u.I.4XH.h 3X4X*XQ.L.|.0.E.H.F r N._.H.k i.D.r.m 8                             ",
"                2X.XK.m.B..X XG.G.h L.u.M./.V.B.U H n.Q.f.f.N.K.c m 0 w                             ",
"                rX>X2.;XoXD.OX:.h P tXK.w._.m.8.C N.;X6X}.n.7.A.c x p x A u u                       ",
"                qX*X$./.J.D.G.5X~. XZ.j :X3X2.H.V 6.).G.;.t n 8.0.L P A x c 0.7.                    ",
"                wXD.7.:.*XW.$XkXF.^.^.8._.I.9X{.G 7.}.H.n N.N m 7.P L c s -.m L 8                   ",
"                3X).K.J.5XgX%.B.XX7.6.A.w.4X>X-.J U 7.y.N.N.w.P L t.v c A w z z J a                 ",
"                  rX/.A.F.3X9..XXX6.y.A.G.k t G L 7.8.7.c 8.D.v 7.n 7.x s p c c x a                 ",
"                  2XH.S.~.$.8.{.N.q.D.t.9.6.U.n.z M y.L L P 8.L m c x v z 0 0 q s                   ",
"              9X9XrXx.#X(.oX9.6.U.^.w.7.Y.|.^.N m n c L J L J K v x w z z n z w Z                   ",
"              <X6XaXZ.tX:X{.u.e.y.F.6.L./.E.w r 7.8.0 s Z Z V Z J v 0 c e.J V S u                   ",
"                &X XE.A.|.F.M.w.y.q.r.e.g r M U c c e 7.L A M s H e w n 8.7.7.D                     ",
"                ,X4.T.F.G.^.D.m.P 7.e.t.7.7.L y.7.w A P c U m w x J A A 0 z y.K                     ",
"              0XK.S.e.u.w.{.{.n.0.7.0.L 7.y.7.v P x x b n p 9 7.r.n w s x 9 c K u                   ",
"              wXK.oX6.q.i.L.W.7.t.P L F.-.M U L H x z p p q e z v s 0 q s m L K 9                   ",
"              9X0XA.$X_.:.u.I P P G U ^.c x z c K V n.f.q x c x z z p 0 e L Z Z J                   ",
"                qXT.#X$XA.(.N 7.n x m S.7.M z x x C d L.c s H x q z z 0 n A Z Z Y a                 ",
"                  &XP.Z.B.n.8.D.M.c z 8.e.x z x M 7.e e e q p p q 0 z H K A Z Z i                   ",
"                  :X<X.Xn.I L z m p A s e z p q A L H a e q w q q 0 A Z S 8                         ",
"                        V.G u J U x z p z z q z p Z A e w Z Z Z A a u S a                           ",
"                                U b x z z 0 s A a e e 0 Z Z S u                                     ",
"                                    u K s A u = u i 8 C Z a u                                       ",
"                                        ; - * > > % = - ;                                           ",
"                                        4 3 7 6 3 1 1 % .                                           ",
"                                    ~ ~ 6 ~ ( 4 7 o O * *                                           ",
"                                  R / 3 7 6 ( 3 7 > > * * 1                                         ",
"                            @.X.v.s.< ) _ ! 6 ) ^ 7 2 $ * : E p.& # X.                              ",
"                             .h.h.W ( _ ~ Q 3 ^ _ ^ : l y $ 2 O X l | X.} X.o.X.                    ",
"                  } O.X...k.d.j.! ) ` ! s.1.X o / ( < B &.a.T * y ;.x.j.@.}                         ",
"                    } c.d.p.j.k.g.a.T R ' +X=Xf =.~ 4 . &.p.B p.>.d.z.v.X.                          ",
"                    } z.O.b.p.p.,.,.a.*.!.>X*X5XC.5 4 + p.;.,.,.>.;.d.| }                           ",
"                        '.b.x.j.d.j.j.*.=X8Xf 5X+Xo 4 T B ,.>.;.p.>.b.'.O.}                         ",
"                        X.  z.} +. .j.j.] [ f =XfX+ X > l ,.>.a.k.l.j.#.                            ",
"                              o.} } @. .O.j.,.c.C.<.[ &.x.,.d.l.o.X.  }                             ",
"                            } @.      X.} c.O.{ =.>.,.>.j.j.,.d. .o.                                ",
"                                          { '.'.k.>.>.l.<.j.@.l.| }                                 ",
"                                            '.X.| k.z.X.c.| X.                                      ",
"                                                  X.                                                "
};
