/* XPM */
static char *result[] = {
/* columns rows colors chars-per-pixel */
"50 50 192 2 ",
"   c #93B158",
".  c #94B259",
"X  c #96B35A",
"o  c #96B45A",
"O  c #97B45A",
"+  c #97B45B",
"@  c #98B45B",
"#  c #98B65B",
"$  c #99B65B",
"%  c #99B65C",
"&  c #99B75C",
"*  c #9BB75C",
"=  c #9CB75C",
"-  c #9CB85D",
";  c #9DB85D",
":  c #9EB95D",
">  c #9EB95E",
",  c #9FB95E",
"<  c #9FBA5E",
"1  c #A0BA5F",
"2  c #A0BB5F",
"3  c #A1BB5F",
"4  c #A2BB5F",
"5  c #A3BD60",
"6  c #A3BE60",
"7  c #A5BE61",
"8  c #A6BE61",
"9  c #A6BF61",
"0  c #A6BF62",
"q  c #A7BF62",
"w  c #ABBB71",
"e  c #A7C062",
"r  c #A8C062",
"t  c #A8C063",
"y  c #A9C063",
"u  c #A9C163",
"i  c #AAC163",
"p  c #ABC264",
"a  c #ACC464",
"s  c #ACC465",
"d  c #AEC465",
"f  c #AEC565",
"g  c #AFC565",
"h  c #AFC566",
"j  c #B0C666",
"k  c #B1C667",
"l  c #B1C767",
"z  c #B2C767",
"x  c #B3C864",
"c  c #B2C867",
"v  c #B4CA65",
"b  c #B4CA66",
"n  c #B6CA67",
"m  c #B6CB67",
"M  c #B2C868",
"N  c #B3C868",
"B  c #B3CA69",
"V  c #B3CB69",
"C  c #B4C868",
"Z  c #B6C969",
"A  c #B4CA68",
"S  c #B4CA69",
"D  c #B5CB69",
"F  c #B6CB68",
"G  c #B7CB68",
"H  c #B6CB69",
"J  c #B7CB69",
"K  c #B6CB6A",
"L  c #B7CB6A",
"P  c #B7CC69",
"I  c #B7CC6A",
"U  c #B8CB6A",
"Y  c #B8CC69",
"T  c #BACE68",
"R  c #B8CC6A",
"E  c #B9CC6A",
"W  c #B9CD6A",
"Q  c #B8CC6B",
"!  c #B9CC6B",
"~  c #B9CD6B",
"^  c #BACC6A",
"/  c #BACD6A",
"(  c #BACD6B",
")  c #BBCD6B",
"_  c #BACE6B",
"`  c #BBCE6B",
"'  c #BDCD6B",
"]  c #BECE6B",
"[  c #B9CD6C",
"{  c #B9CD6D",
"}  c #BACD6D",
"|  c #BBCE6C",
" . c #BBCE6F",
".. c #BAD068",
"X. c #BBD06C",
"o. c #BDD06C",
"O. c #BED16C",
"+. c #BED16D",
"@. c #BFD16D",
"#. c #BFD26D",
"$. c #BDCE70",
"%. c #BDCF70",
"&. c #BDCF71",
"*. c #BECF72",
"=. c #BED172",
"-. c #C0CE6B",
";. c #C0CE6C",
":. c #C0CF6C",
">. c #C1CF6C",
",. c #C2CF6C",
"<. c #C3CF6C",
"1. c #C3D16C",
"2. c #C0D26D",
"3. c #C1D36E",
"4. c #C2D36E",
"5. c #C5D16C",
"6. c #C5D16D",
"7. c #C6D16D",
"8. c #C7D26D",
"9. c #C2D46E",
"0. c #C4D46E",
"q. c #C4D66F",
"w. c #C5D66F",
"e. c #C5D76F",
"r. c #C6D76F",
"t. c #C8D26D",
"y. c #C9D26D",
"u. c #CAD36E",
"i. c #CCD36E",
"p. c #CDD46E",
"a. c #CFD56F",
"s. c #D0D56F",
"d. c #D2D56F",
"f. c #C6D770",
"g. c #C0D274",
"h. c #C0D275",
"j. c #C7D870",
"k. c #C8D870",
"l. c #C8D971",
"z. c #CADA71",
"x. c #CBDA71",
"c. c #CBDA72",
"v. c #CBDC72",
"b. c #CCDC72",
"n. c #CDDC72",
"m. c #CDDD72",
"M. c #CDDD73",
"N. c #CEDD73",
"B. c #CEDE73",
"V. c #CFDE73",
"C. c #C2D379",
"Z. c #C4D47A",
"A. c #C4D47B",
"S. c #C5D47B",
"D. c #C6D57D",
"F. c #C7D67E",
"G. c #C7D67F",
"H. c #C7D87F",
"J. c #D3D770",
"K. c #D4D670",
"L. c #D5D670",
"P. c #D7D871",
"I. c #D9D971",
"U. c #DAD971",
"Y. c #DCDA72",
"T. c #DDDA72",
"R. c #DFDA72",
"E. c #DFDB72",
"W. c #E0DB72",
"Q. c #E1DB73",
"!. c #E1DC73",
"~. c #E2DC73",
"^. c #E4DC73",
"/. c #E5DE73",
"(. c #E5DE74",
"). c #E6DE74",
"_. c #E8DF74",
"`. c #C8D880",
"'. c #C9D982",
"]. c #CBD982",
"[. c #CCDA84",
"{. c #CCDA85",
"}. c #CDDB85",
"|. c #CDDB86",
" X c #CDDB87",
".X c #CEDB87",
"XX c #CEDC87",
"oX c #CEDC88",
"OX c #D1DE8B",
"+X c #D2DF8D",
"@X c #D3DF8D",
"#X c #D3DF8E",
/* pixels */
"w w w w w w w w w w w w w w w w w w w w w w w w w w w w w w w w w w w w w w w w w w w w w w w w w w ",
"..................................T T T ......................T ........T T T ......................",
"L L L L L L L L L L L L L L L L L U Q U L L L L L L L L L L L L L L L L Q ! ! L L L L L U L L L L L ",
"R R R R R R R R R R R R R R R R W c s N E R R R R R R E R R R R R R I ~ h 6 q H R R R I L R R R R R ",
"R R R R R R H R R R R R R H J I ~ j 9 l ~ R R R R R H C Z R R R R R I R 8 X $ c E R I ^ ' R R R R R ",
"R R R R R R u L R R R W A r p R R L t I R R R R L ( s X e _ I R R L ( t # - # r ~ R D 1.I.D R R R R ",
"R R R R W M a R R R R R I u h W R R l R R R R R R R 7 + , h R R R R J 2 $ = @ q ( R D a.!.] K R R R ",
"R R R R ( f j ~ R R R L ( s N ~ I R E R R R R R R H ; * @ 4 ~ I R W N * * = @ e ~ R K P.).7.H / R R ",
"R R E L ( f g ~ R R R R R J L R R R R R R R R R R J : $ * * z ~ L W N * * = @ 9 ( R D t.E.D ] U.R R ",
"R J z R E c c E R R R R R R R R R R R R R R R R R J : $ * $ l ~ L R J 1 $ * $ s ~ R H -.p.V t.~.:.K ",
"E S u W I R R R R R R R R R R R R R R R R R R R R J : $ * % l ~ I I ( r + * = S E R R L H D K._.i.V ",
"R E a c ~ R R R R R R R R R R R R R R R R R R R R H ; % = # l ~ I R R S N N A E R R R R E D 1.Q.) L ",
"I ~ s l ~ N R R R R R R R R R R R R R R R R R R R R 4 $ * ; N E R R R R E ~ A h J R R R R K ' d.R R ",
"R ~ a l E r I R R R R R R R R R R R R R R R R R L ( p O O 5 ~ L R R R ~ L ( i X A E R R R R I H R R ",
"R R A R k f ~ R R R R R R R R R R R R R W N p j E R A j j N ~ E I ~ p , j E 2 @ i ~ I R I K R R R R ",
"R R R ( f j ~ L R J A Z R R R R R R R R W N q h ~ I R ~ ~ J l N R R 5 . t L ; O 9 ~ R I / ;.R R R R ",
"R R L ~ d h ( L W M 0 s ~ I R R R R R R R ~ u Z R R R J ~ j X 3 _ z * & : C : O 8 ~ R D ,.Y.H R R R ",
"R R R R A S R R R J u z E R R R R R R R R R N J R R R R E 9 # - C N % % ; J 9 o h ~ R H s.^.,.H R R ",
"R R R R R R R R R ~ a Z R R R R R R R R R R E R R R R R R < % @ j H = * > E d ; H E R H L.).7.D E R ",
"R R R R R R R R R R R R R R R R R R R W R R R R R R R R R < % # g | 7   i ( J L R R E D 6.R.L R R R ",
"R R R R R R R R R R R R R R R R R R C g N E R R R R R R E r + : A ~ j t z E R R R R R L ] y.I R R R ",
"R R R R R R R R R R R R R R R R R W l 8 j ~ I R R R R I ~ k # 6 ~ L W ( E R R R R R R R L D R R R R ",
"R R R R R R R R R R R R R R R R R R L y J R R R R R R R R J Z H R R R L R R R R R R R R R R R R R R ",
"R R R R R R R R R R R R R R R R R R R j I R R R R R R R R R R R R R R R R R R R R R R R R R R R R R ",
"R R R R R R R R R R R R R R R R R R R E R R R R R R R R R R R R R R R R R R R R R R R R R R R R R R ",
"R R R R R R R R R R R R R R R R R R R R R R R R R R R R R R R R R R R R R R R R R R R R R R R R R R ",
"R R R R R R R R R R R R R R R R R R R R R R R R R R R R R R R R R R R R R R R R R R R R R R R R R R ",
"R R R R R R R R R R R R R R R R R R R R R R R R R R R R R R R R R R R R R R R R R R R R R R R R R R ",
"R R R R R R R R R R R R R R G G R R R R R R R R R R L J J R R R R R R R L J L R R R R R R R R R R R ",
"R R R R R R R R R R R R R Q *.$.Y R R R R R R R R R ( o.o.E R R R R R R ( o.X.R R R R R R R R R R R ",
"R R R R R R R R R R R R J  .+X|.G R R R R R R R R H 2.N.b.` L R R R R H 9.N.c.W L R R R R R R R R R ",
"R R R J P R R R R R R R R J |.D.n R R Y J P R R R R f.b.b.4.J R R R R E k.b.v.e.W I R R L I R R R R ",
"R R Y } [ Y R R R R R R Q b G.h.n Q P [  .[ Y R I W z.b.m.f.J R R R L ( b.b.b.n.o.L R R ' / I R R R ",
"R ! x `.S.b Q R R R R R R R R R R ! v Z.@XF.b ! I W x.b.m.f.J R R R L ( c.b.v.m.q.J E B P.8.V E R R ",
"R J R [.&.G R R R R R R R R R R R R G %.OXg.F Q R L w.m.b.2.J R R R L ( c.b.v.m.w.J I ' W.J.H R R R ",
"R J &..Xm R R R R R R R R R R R R R R F |.[ J R R H #.b.x._ I R R R L ( x.b.c.n.q.J H <.(.U.I R R R ",
"b '.C.[.P R R R R R R R R R R R R R R R [ R R R R R R W ~ R H J R R R J q.B.m.m.` L R H Y.u.V E R R ",
"n A.].[.J R R R R R R R R R R R R R R R P R R R R R R R L ( 3.O.I R R J O.q.0.9.W R R H u.>.H R R R ",
"J { +X{.J R R R R R R R R R R R R R R R R R R R R R R R J +.V.j.L R R R L H H J R R R R D L E R R R ",
"G $.XXQ } [.J R R R G m Y R R R R R R R R R R R R R R J O.x.v.b.o.H ( l.j.R R R R R R R R I D R R R ",
"G $. Xb Q }.&.G R P =.h.[ P R R R R R R R R R R R R R J #.M.v.m.+.Z O.m.b.| L R R R R R I ) 5.R R R ",
"G $.oXG v D.F.b Q G {.#X*.m Q R R R R R R R R R R R L H #.n.c.n.@.S e.n.n.9.H R R R R R D ,.T.I R R ",
"R ! &.R v F.D.b ! n Z.|.F R R R R R R R R R R R R R f.3.R z.N.l.W H w.m.m.9.H R R R R R D d./.7.D E ",
"R R G ! v F.D.b ! m =.F.b ! R R R R R R R R R R L ( b.j.J q.l.9.L J 4.b.b.2.J R R R R R D d.(.7.D E ",
"R R R ! v H.F.v Q R R J R R R R R R R R R R R R H 3.m.c.` H L L R L ( m.b.R I R R R R R D ,.T.I R R ",
"R R R R G &.%.G R R R R R R R R R R R R R R R R H 3.M.b.` L R R R R E @.O.R R R R R R R I ) 6.R R R ",
"R R R R R G J R R R R R R R R R R R R R R R R R J 2.n.z.( L R R R R R J J R R R R R R R R I D R R R ",
"R R R R R R R R R R R R R R R R R R R R R R R R R R b.r.H R R R R R R R R R R R R R R R R R R R R R ",
"R R R R R R R R R R R R R R R R R R R R R R R R R R 2.O.L R R R R R R R R R R R R R R R R R R R R R ",
"R R R R R R R R R R R R R R R R R R R R R R R R R R H J R R R R R R R R R R R R R R R R R R R R R R "
};
