/* XPM */
static char *b4a748f2780846a280627f95ba392542JdwnyOJpEkAH2PCX[] = {
/* columns rows colors chars-per-pixel */
"50 50 31 1 ",
"  c #719C56",
". c #759F57",
"X c #76A058",
"o c #78A158",
"O c #84A95B",
"+ c #8FB25D",
"@ c #90B25E",
"# c #92B45E",
"$ c #99BA60",
"% c #9DBC61",
"& c #A0BF61",
"* c #A2C162",
"= c #A4C263",
"- c #A6C463",
"; c #A6C364",
": c #A6C464",
"> c #ABC766",
", c #ADC767",
"< c #AEC867",
"1 c #AEC968",
"2 c #B3CB6A",
"3 c #B3CC6A",
"4 c #B5CD6B",
"5 c #B7CE6C",
"6 c #B8CF6C",
"7 c #B9D06D",
"8 c #BCD26E",
"9 c #BFD470",
"0 c #C2D571",
"q c #C4D672",
"w c #C5D872",
/* pixels */
"o +:===========**===**===**=====******=======-O Xo",
" @*====**=*****6>&******;6>****%<76671**======%$#X",
"#*:===*>1*2442405242*<4<=06>=3227000q2=2***=*=->$.",
"%*===*>78<0880000880,8q8,8q4200880000420<,:=,==:$ ",
" $:===70000>200002>000000980000>20000000002,0>=-$o",
" $:*=800000880000880900090>2000880000000008899>***",
"$**>80000090000000009900907800009999000000009081*=",
":=*;48009999900000009900000000009999064000000004*=",
"=*>>>800000009990000990000999990000003<000086002*=",
"=*3q0990000880990000990000999900090090090006;804*=",
"=*200990990>2000009099000009000009009099090080006*",
"=%28>8009907800000999900000900000009909999000004:=",
"*<7828009000090009990000000000990099990090000007,*",
"*700000000009900099909000000009900999000000900007*",
"*500000000009999009999990000999990009099009999006*",
"=*20000000009999099999999900099999000099000099906*",
"*287>80000990000000000009900000000000099900000007*",
"*8q828900099000000000000990000009900009903600007<*",
"*3800900869900009900000099909900999900090<40008,*=",
"=*2009006;809900990000099999999999990099000000<*==",
"==*<09900800999099000099999999900009999900999902*=",
"=*<80000000099999900009999999900000099900099903:*=",
"=%2q828000009900900009999900000000009900000990>&==",
"=>508>70000099009900099909000000000099000009002:*=",
"*70000009999990000990000009999990999990000008004*=",
"*7000000009999000009000000009999009999000006;802*=",
"=>5090000000900000999900000000900000900000086002*=",
"=*2099000000000000999900000000000000900000000004*=",
"=*309909900000000000999000000000990000096809008<*=",
"=*20998899000000009999000000000099000008;60900<*==",
"==*<00>20999000099999990009099999909000080990002*=",
"=*,80078099900099999999000999999900990000007>8083*",
"*180000000999000000999000000099999990000000728907*",
"*480000000990000009999000090009999009900009009007*",
"=*30909909990000000099009999000000009999000900005*",
"*60099990999000000009900999900000000999900990004*=",
"*>60000090009999999000009900090000990009000000q4*=",
"=*>40000000099999990000000009900009900000460004>*=",
"=*;20008790000999900009900009999099900000<40902;*=",
"=*200002>000000999900099000099999999000000009902*=",
"==*<000889000000000000990000909099990000909990<*==",
"=*<80000090<40999000009900000900999900000000998<*=",
"=*4w090090045000054000990000082800990000000000q4*=",
"=*1769009000000004<00090990008>70000008690870081*=",
"==**:8000800099000000088999900000000006;802>00>***",
"-=*,00007;8009900000002>0990000000000008008800,=$o",
"O%=;10q4<8000099008,0q870004200240000000000001;-$ ",
" $>**24>;428740007,*227q006>=44=:500074005232**>%.",
"X@&==******4<;767<*=*%<767>******:767,;77>&**==&@X",
"o +:=======**=****====****======******=**=====:+ o"
};
