/* XPM */
static char *result[] = {
/* columns rows colors chars-per-pixel */
"50 50 179 2 ",
"   c #874332",
".  c #A66E37",
"X  c #8A4F45",
"o  c #935A46",
"O  c #8A5757",
"+  c #8C5759",
"@  c #8D5D5C",
"#  c #9B6651",
"$  c #976E54",
"%  c #996C56",
"&  c #9B6D5B",
"*  c #9F7057",
"=  c #9C715B",
"-  c #A77244",
";  c #A77A4E",
":  c #AD7D4E",
">  c #A66E52",
",  c #A8725F",
"<  c #AB795E",
"1  c #A37C5C",
"2  c #8B5D61",
"3  c #8E666A",
"4  c #926665",
"5  c #996A60",
"6  c #946C6A",
"7  c #9D7661",
"8  c #9E7B65",
"9  c #9F786E",
"0  c #9F7772",
"q  c #9E7B7A",
"w  c #AD7D65",
"e  c #A07D71",
"r  c #AE814E",
"t  c #B38A5C",
"y  c #A58667",
"u  c #B38C62",
"i  c #B2876B",
"p  c #B8906F",
"a  c #AD8C7D",
"s  c #A3847A",
"d  c #B58D73",
"f  c #B79074",
"g  c #B8957F",
"h  c #BD9A7D",
"j  c #BB9475",
"k  c #C19E7D",
"l  c #C3A17D",
"z  c #A78B86",
"x  c #A78D89",
"c  c #A08584",
"v  c #B09484",
"b  c #B79985",
"n  c #BC9C82",
"m  c #B99789",
"M  c #AF9993",
"N  c #B89E90",
"B  c #BEA190",
"V  c #B5A19A",
"C  c #C1A081",
"Z  c #C7AE87",
"A  c #C3A48A",
"S  c #CEAE8C",
"D  c #CBB584",
"F  c #CDB887",
"G  c #C5B28C",
"H  c #CAB38E",
"J  c #CEBA8B",
"K  c #D0BD8D",
"L  c #C1A593",
"P  c #C3AB93",
"I  c #C9AE91",
"U  c #C2B292",
"Y  c #CABC94",
"T  c #CABC9A",
"R  c #CAB093",
"E  c #D1B594",
"W  c #D5B891",
"Q  c #D5BD99",
"!  c #DABE99",
"~  c #CBB4A4",
"^  c #C5B5AE",
"/  c #CEBEA8",
"(  c #CBB6AD",
")  c #D3BCAC",
"_  c #C6B7B0",
"`  c #C8B7B0",
"'  c #C6B9B3",
"]  c #C9BCB4",
"[  c #CABFB8",
"{  c #D0BFB4",
"}  c #D2C18F",
"|  c #D2C192",
" . c #D5C49D",
".. c #DEC19C",
"X. c #E0C59F",
"o. c #DFC8A0",
"O. c #D6C3AB",
"+. c #DBC6AA",
"@. c #DDC9AD",
"#. c #DFD5A2",
"$. c #DED4A9",
"%. c #DFD9AA",
"&. c #CCC2BB",
"*. c #D3C2B4",
"=. c #DBC6B5",
"-. c #D4C5BB",
";. c #DCC6B9",
":. c #DBCCBE",
">. c #E1C7A0",
",. c #E6CBA3",
"<. c #E8CFA6",
"1. c #E0D6A3",
"2. c #E9D0A7",
"3. c #E0D6A9",
"4. c #ECD4AA",
"5. c #E2DAAF",
"6. c #ECD9AD",
"7. c #F1DAAE",
"8. c #E2CFBC",
"9. c #EDDEB1",
"0. c #F3DDB1",
"q. c #E7E1B1",
"w. c #ECE4B4",
"e. c #EDEAB6",
"r. c #EAE7B8",
"t. c #EDEABA",
"y. c #F1E4B6",
"u. c #F0EDB7",
"i. c #F3E6BD",
"p. c #F2ECBC",
"a. c #F3F2BD",
"s. c #D4CBC1",
"d. c #DACDC1",
"f. c #D6CFC9",
"g. c #DCD4C6",
"h. c #D9D3CA",
"j. c #DDD9CE",
"k. c #DFDDD1",
"l. c #E5D5C4",
"z. c #ECDCC7",
"x. c #E3DBCD",
"c. c #E3DFD4",
"v. c #EFE1CC",
"b. c #F3E5C2",
"n. c #F3ECC3",
"m. c #F3E6CB",
"M. c #F3EBCB",
"N. c #F3F3C1",
"B. c #F7F9C5",
"V. c #F9F9C5",
"C. c #F4F4CC",
"Z. c #F7F8CB",
"A. c #FBFDCA",
"S. c #F8F3C4",
"D. c #E5E1D5",
"F. c #E8E5D7",
"G. c #E6E4D8",
"H. c #EAE7DA",
"J. c #EBE9DD",
"K. c #F3EBD3",
"L. c #F3EEDB",
"P. c #F4F4D3",
"I. c #F7F8D7",
"U. c #F9FCD2",
"Y. c #F3F4DC",
"T. c #F7F9DB",
"R. c #F8FBD8",
"E. c #EEEEE1",
"W. c #F3EFE0",
"Q. c #EFF1E4",
"!. c #F4F2E5",
"~. c #F9F4E5",
"^. c #F4F5E9",
"/. c #FCF6E9",
"(. c #F6F8EA",
"). c #FDFBED",
"_. c #FDFFF2",
"`. c #FFFFFB",
"'. c None",
/* pixels */
"'.'.'.'.'.'.'.'.'.'.'.'.'.'.'.'.'.'.'.'.'.'.'.'.'.'.'.'.'.'.'.'.'.'.'.'.'.'.'.'.'.'.'.'.'.'.'.'.'.'.",
"'.'.'.'.'.'.'.'.'.'.'.'.'.'.'.'.'.'.'.'.'.'.'.'.'.'.'.'.'.'.'.'.'.'.'.'.'.'.'.'.'.'.'.'.'.'.'.'.'.'.",
"'.'.'.'.'.'.'.'.'.'.'.'.'.'.'.'.'.'.'.'.'.'.'.'.'.'.'.'.'.'.'.'.'.'.'.'.'.'.'.'.'.'.'.'.'.'.'.'.'.'.",
"'.'.'.'.'.'.'.'.'.'.'.'.'.'.'.'.'.'.'.'._._._.)._._._._._._.'.'.'.'.'.'.'.'.'.'.'.'.'.'.'.'.'.'.'.'.",
"'.'.'.'.'.'.'.'.'.'.'.'.'.'.'.'.'.'.'.(.^._.(.(.(.~.(.(._.^.^.'.'.'.'.'.'.'.'.'.'.'.'.'.'.'.'.'.'.'.",
"'.'.'.'.'.'.'.'.'.'.'.'.'.'.'.'.'.'.H.D.)._./.~.~.~.~./._.).F.H.'.'.'.'.'.'.'.'.'.'.'.'.'.'.'.'.'.'.",
"'.'.'.'.'.'.'.'.'.'.'.'.'.'.'.'.'.^.x.*.) ) ) ) ) ) ) ) ) ) *.x.^.'.'.'.'.'.'.'.'.'.'.'.'.'.'.'.'.'.",
"'.'.'.'.'.'.'.'.'.'.'.'.'.'.'.'.`.!.x.L < > < w w w w < > < L x.!.`.'.'.'.'.'.'.'.'.'.'.'.'.'.'.'.'.",
"'.'.'.'.'.'.'.'.'.'.'.'.'.'.'.E.J.).v.S t r t u u u u t r t I v.).H.!.'.'.'.'.'.'.'.'.'.'.'.'.'.'.'.",
"'.'.'.'.'.'.'.'.'.'.'.'.'.'.^.x.*.=.+. .Q | | | | } } } } |  .+.=.-.x.!.'.'.'.'.'.'.'.'.'.'.'.'.'.'.",
"'.'.'.'.'.'.'.'.'.'.'.'.'._.W.:.m i Z $.t.t.t.t.e.w.e.e.a.e.$.Z i b :.!.`.'.'.'.'.'.'.'.'.'.'.'.'.'.",
"'.'.'.'.'.'.'.'.'.'.'.'.!.E.).l.h t F w.A.A.V.S.Z.Z.Z.Z.A.A.q.F t h l.).J.!.'.'.'.'.'.'.'.'.'.'.'.'.",
"'.'.'.'.'.'.'.'.'.'.'.!.j.-.8.+.Y W #.e.V.V.S.S.C.I.R.R.U.A.t.#.} Y O.:.&.h.!.'.'.'.'.'.'.'.'.'.'.'.",
"'.'.'.'.'.'.'.'.'.'.`.J.-.b p H 3.t.a.a.a.n.p.n.K.Y.!.!.C.N.a.a.e.$.B s x &.E.`.'.'.'.'.'.'.'.'.'.'.",
"'.'.'.'.'.'.'.'.'.^.W.).8.j t K e.B.A.B.n.n.i.b.m.W.!.Y.P.N.a.A.A.w.G = 0 s.).Q.^.'.'.'.'.'.'.'.'.'.",
"'.'.'.'.'.'.'.'.H.x.g.z.@.H K #.e.A.Z.P.P.M.b.b.m.K.L.P.C.a.a.V.A.e. .h b ~ l.s.j.H.'.'.'.'.'.'.'.'.",
"'.'.'.'.'.'.'.(.F.*.B A  .3.e.e.u.N.P.T.!.L.M.b.b.b.m.M.n.N.N.B.N.p.6.o.W B z M &.F.(.'.'.'.'.'.'.'.",
"'.'.'.'.'.'._.(._.=.w : F w.A.A.a.B.P.!.^.W.M.b.b.b.n.i.p.N.N.N.N.p.i.7...j o 6 &._.(._.'.'.'.'.'.'.",
"'.'.'.'.'.'.`.(.`.;.> . D e.A.U.Z.P.Y.^.^.E.Y.K.m.n.i.i.a.N.N.N.N.a.i.0.X.p   @ -.`._.`.'.'.'.'.'.'.",
"'.'.'.'.'.'.`._._.=., - D w.V.R.Y.^.^.Q.!.^.!.Q.L.M.a.a.a.N.N.N.N.p.y.7...p X 3 &._._.`.'.'.'.'.'.'.",
"'.'.'.'.'.'._.^.~.=.i u K w.B.R.Q.^.^.^.^.Q.^.!.Y.C.N.a.a.a.N.N.N.a.w.6.! h 5 e ] ~.^.(.'.'.'.'.'.'.",
"'.'.'.'.'.J.x.g.l.O.H J #.e.N.P.Y.Y.W.^.^.^.!.Y.P.C.a.a.N.N.N.N.N.a.y.4.>.S k b ~ d.g.k.H.'.'.'.'.'.",
"'.'.'.'.(.D.*.P R  .$.q.e.p.S.M.M.K.L.Q.^.!.Y.C.N.N.N.a.a.N.N.B.B.t.0.4.,...! E P N V [ D.(.'.'.'.'.",
"'.'.'._.^.~.) w u | e.Z.V.N.a.p.i.b.K.W.Q.Y.C.a.a.N.N.N.N.N.N.N.N.i.9.4.<.4.4.>.C & 6 ^ !.(.`.'.'.'.",
"'.'.'._._._.) # ; Y a.A.A.N.N.p.i.t.M.Y.Y.P.N.a.a.a.N.N.N.a.n.t.u.y.6.2.2.4.7.,.Z   O ] _.`._.'.'.'.",
"'.'.'._.^.).( 5 1 Y t.V.V.N.N.p.n.N.n.M.C.C.N.a.a.a.N.N.N.N.t.r.6.6.2.2.4.4.4.>.l # 4 ` /.(._.'.'.'.",
"'.'.'._.(.W.^ 4 8 Y r.B.V.N.N.N.N.N.N.N.N.N.N.a.N.a.N.N.N.N.t.w.2.<.,.<.2.4.4.>.n = 6 ( !.(._.'.'.'.",
"'.'.'.`.(.W._ 4 8 Y r.B.V.N.a.N.N.a.a.a.a.N.N.N.N.N.N.N.N.N.p.9.2.X.,.<.2.4.4.>.C = 6 ^ !.(._.'.'.'.",
"'.'.'._.(.!.^ 3 8 Y r.B.N.N.N.N.N.N.a.a.a.a.N.p.N.a.N.N.B.B.t.w.2.<.,.<.2.4.4.X.C & 6 ` W.(.`.'.'.'.",
"'.'.'._.(.~.^ 6 8 Y r.B.V.N.N.N.N.a.N.N.N.N.N.N.N.N.N.N.N.N.p.9.2.,.<.<.2.4.4.X.C & 6 _ ~.(._.'.'.'.",
"'.'.'._./.W.^ 4 8 Y r.V.V.N.t.N.a.N.N.N.N.a.N.N.N.N.N.N.a.i.w.9.2.<.,.<.2.4.4.X.C = 6 _ !.^._.'.'.'.",
"'.'.'.`.(.W.^ 6 8 Y r.V.V.N.N.N.N.N.N.a.N.N.a.N.N.N.N.p.t.w.6.2.2.<.<.<.2.4.4.X.C = 6 _ ~.(._.'.'.'.",
"'.'.'._.^.~.^ 4 8 Y r.V.S.N.a.N.a.N.N.N.N.N.N.N.N.N.N.p.0.4.<.<.<.<.<.<.<.4.4.>.C & 6 ] ~.(._.'.'.'.",
"'.'.'._.^.~.^ 4 7 Y t.A.V.N.a.N.N.N.N.p.a.N.N.N.N.N.p.w.4.,.,.,.<.<.<.<.4.4.4.>.k & 4 ^ ~.^._.'.'.'.",
"'.'.'._._._.^ + $ Y t.A.A.N.N.N.a.N.a.N.N.N.N.N.p.t.w.6.4.<.,.<.2.<.<.<.2.4.6.,.k o @ ] _._._.'.'.'.",
"'.'.'._.).).^ + $ Y p.A.V.N.a.N.N.N.N.N.N.N.N.N.p.9.4.<.<.<.<.2.<.<.<.2.2.7.4.,.k o @ ` ).)._.'.'.'.",
"'.'.'._.^.D.^ z v  .%.r.a.a.N.N.N.N.N.a.N.a.N.p.w.6.,.,.<.<.2.2.2.2.4.4.,.,.o.Q A a x ^ D.(._.'.'.'.",
"'.'.'.'.'.G.f.s.s.O.B | %.p.A.A.B.V.V.V.S.S.p.y.9.4.4.<.4.4.4.4.4.4.7.4.,.W l n ~ :.s.h.G.'.'.'.'.'.",
"'.'.'.'.'.'.!.E.(.&.q y | t.A.A.A.B.B.A.V.p.y.4.4.4.4.4.4.4.4.4.4.4.7.4.>.l > 9 ] /.E.!.'.'.'.'.'.'.",
"'.'.'.'.'.'.'._.J.' s s B 5.u.u.r.r.r.r.e.6.3...X.X.X.>.X.X.X.X.>.>.,.,.! n 0 c [ H._.'.'.'.'.'.'.'.",
"'.'.'.'.'.'.'.'.E.f.' *./ T Y Y Y Y T T Y G A h k C C C C C C C C C k C A T ] [ h.E.'.'.'.'.'.'.'.'.",
"'.'.'.'.'.'.'.'.'.E.J./.:.v $ $ 7 8 8 8 8 7 & & & & & & & & & & & % o o a :./.J.E.'.'.'.'.'.'.'.'.'.",
"'.'.'.'.'.'.'.'.'.'._.E.s.z O O 4 4 6 4 6 4 6 6 6 6 6 6 6 6 6 6 6 4 @ @ x s.E._.'.'.'.'.'.'.'.'.'.'.",
"'.'.'.'.'.'.'.'.'.'.'.!.h.^ ^ ^ ^ ^ ^ ^ ^ ^ _ _ _ _ _ _ _ _ _ _ ^ ] ` ` _ f.!.'.'.'.'.'.'.'.'.'.'.'.",
"'.'.'.'.'.'.'.'.'.'.'.'.G.c.)._.~.!.W.~.W.~.~.~.~.W.!.!.~.!.W.~.~.~._._.D.F.'.'.'.'.'.'.'.'.'.'.'.'.",
"'.'.'.'.'.'.'.'.'.'.'.'.'.^.)._.(.(.^.(.(.^.^.(.(.(.(.(.(.(.(.(.^.^._.).(.'.'.'.'.'.'.'.'.'.'.'.'.'.",
"'.'.'.'.'.'.'.'.'.'.'.'.'._._._._._.).`._._._._._._.`._._._._._._._._._._.'.'.'.'.'.'.'.'.'.'.'.'.'.",
"'.'.'.'.'.'.'.'.'.'.'.'.'.'.'.'.'.'.'.'.'.'.'.'.'.'.'.'.'.'.'.'.'.'.'.'.'.'.'.'.'.'.'.'.'.'.'.'.'.'.",
"'.'.'.'.'.'.'.'.'.'.'.'.'.'.'.'.'.'.'.'.'.'.'.'.'.'.'.'.'.'.'.'.'.'.'.'.'.'.'.'.'.'.'.'.'.'.'.'.'.'.",
"'.'.'.'.'.'.'.'.'.'.'.'.'.'.'.'.'.'.'.'.'.'.'.'.'.'.'.'.'.'.'.'.'.'.'.'.'.'.'.'.'.'.'.'.'.'.'.'.'.'."
};
