/* XPM */
static char *result[] = {
/* columns rows colors chars-per-pixel */
"50 50 12 1 ",
"  c black",
". c #0C0E1A",
"X c #21110D",
"o c #402717",
"O c #573A23",
"+ c #AC7B5D",
"@ c #1D438A",
"# c #2C65B5",
"$ c #787E97",
"% c #A4A8B5",
"& c #C1AC8F",
"* c None",
/* pixels */
"**************************************************",
"**************************************************",
"**************************************************",
"**************************************************",
"**************************************************",
"**************************************************",
"**************************************************",
"**************************************************",
"**************************************************",
"**************************************************",
"**************************************************",
"**************************************************",
"**************************************************",
"********************    *  ***********************",
"******************** OOo O   *********************",
"********************  OOoOOOo ********************",
"******************* oOOOOOOOO ********************",
"****************** oOOOOoOOOOo *******************",
"****************** OOOooooOOOO *******************",
"****************** OOOo++++oOO *******************",
"****************** OOo++++++oO *******************",
"****************** oO+X&&&X+o ********************",
"******************* O&X&&&X&+ ********************",
"******************* +&&&&&&&+ ********************",
"******************* o+&&&&&+o ********************",
"******************** o+++++o *********************",
"*******************  oo$$$oo *********************",
"****************** &&oO$%%Oo+ ********************",
"****************** &&OO###OO+ ********************",
"*******************  @###### *********************",
"******************** oOO ### *********************",
"*******************..    oOOO ********************",
"******************....... OOO .*******************",
"******************.............*******************",
"*******************...........********************",
"**************************************************",
"**************************************************",
"**************************************************",
"**************************************************",
"**************************************************",
"**************************************************",
"**************************************************",
"**************************************************",
"**************************************************",
"**************************************************",
"**************************************************",
"**************************************************",
"**************************************************",
"**************************************************",
"**************************************************"
};
