/* XPM */
static char *result[] = {
/* columns rows colors chars-per-pixel */
"50 50 188 2 ",
"   c #010000",
".  c #0A0402",
"X  c #0D0805",
"o  c #0A0A0A",
"O  c #130100",
"+  c #1A0201",
"@  c #140B06",
"#  c #1E0B01",
"$  c #120E0A",
"%  c #16130E",
"&  c #1D1109",
"*  c #1B1510",
"=  c #19191A",
"-  c #230100",
";  c #240D01",
":  c #290C00",
">  c #370D00",
",  c #271507",
"<  c #23160D",
"1  c #2A160A",
"2  c #25190F",
"3  c #2C1A0C",
"4  c #331100",
"5  c #351A00",
"6  c #3B1E00",
"7  c #251B14",
"8  c #2B1C11",
"9  c #2A1E1C",
"0  c #241813",
"q  c #301E13",
"w  c #3F2707",
"e  c #2D221B",
"r  c #332215",
"t  c #3A2515",
"y  c #3E2815",
"u  c #3A2619",
"i  c #3D291B",
"p  c #31231A",
"a  c #000020",
"s  c #000031",
"d  c #0D1930",
"f  c #2F2327",
"g  c #3D2C24",
"h  c #342C25",
"j  c #39332A",
"k  c #3E3A3C",
"l  c #422900",
"z  c #412908",
"x  c #4F3408",
"c  c #422D1D",
"v  c #46311E",
"b  c #4C3418",
"n  c #543B1C",
"m  c #463121",
"M  c #4B3523",
"N  c #4E3825",
"B  c #41392F",
"V  c #523B27",
"C  c #543D29",
"Z  c #443C32",
"A  c #533D31",
"S  c #58402D",
"D  c #5C4432",
"F  c #54493D",
"G  c #5D4C35",
"H  c #604735",
"J  c #654B3A",
"K  c #694E3C",
"L  c #6A4C33",
"P  c #6E523E",
"I  c #1A2C58",
"U  c #3A2F41",
"Y  c #3E3F42",
"T  c #353559",
"R  c #1F3263",
"E  c #113375",
"W  c #283665",
"Q  c #353B64",
"!  c #2C437C",
"~  c #3C4877",
"^  c #3D4268",
"/  c #424448",
"(  c #4B494C",
")  c #464446",
"_  c #524A4A",
"`  c #4C475C",
"'  c #6F5440",
"]  c #6F5844",
"[  c #725541",
"{  c #795B45",
"}  c #7A5C47",
"|  c #7F624D",
" . c #6D6252",
".. c #726454",
"X. c #4E5061",
"o. c #484B75",
"O. c #565966",
"+. c #616267",
"@. c #65666B",
"#. c #696A6E",
"$. c #7E7261",
"%. c #6D6C72",
"&. c #6F7073",
"*. c #76777B",
"=. c #79747A",
"-. c #786562",
";. c #84644D",
":. c #896750",
">. c #8C6A52",
",. c #926F57",
"<. c #957055",
"1. c #957158",
"2. c #9A745B",
"3. c #9F7A5F",
"4. c #A47B5E",
"5. c #877A66",
"6. c #9E7A60",
"7. c #A47D62",
"8. c #A87E61",
"9. c #AA805F",
"0. c #8D806C",
"q. c #9C8D77",
"w. c #9C8D78",
"e. c #A68065",
"r. c #A98165",
"t. c #A38369",
"y. c #AE8569",
"u. c #A9896F",
"i. c #AB8C71",
"p. c #AE9076",
"a. c #A0907A",
"s. c #103D86",
"d. c #253F81",
"f. c #274184",
"g. c #2A4384",
"h. c #2D4A8B",
"j. c #294689",
"k. c #3F4E81",
"l. c #244890",
"z. c #2F5197",
"x. c #33559A",
"c. c #37589C",
"v. c #3A5EA4",
"b. c #365BA4",
"n. c #3D60A7",
"m. c #3261AF",
"M. c #3D64AD",
"N. c #3D66B1",
"B. c #3D68B5",
"V. c #3E6CBB",
"C. c #3563B1",
"Z. c #4D5084",
"A. c #435B98",
"S. c #6E7286",
"D. c #7C7D82",
"F. c #727384",
"G. c #727B96",
"H. c #797E97",
"J. c #767F9B",
"K. c #4666AA",
"L. c #506DAC",
"P. c #5B74AF",
"I. c #5D76B2",
"U. c #406AB7",
"Y. c #897E87",
"T. c #7F8085",
"R. c #77819C",
"E. c #808186",
"W. c #83848A",
"Q. c #8A858C",
"!. c #878998",
"~. c #A79780",
"^. c #AD9D85",
"/. c #B19C82",
"(. c #B3A38B",
"). c #BAA78D",
"_. c #BAA98F",
"`. c #B7A187",
"'. c #BDAC92",
"]. c #9B9EAC",
"[. c #9DA0AD",
"{. c #A9ABB6",
"}. c #A0A3B2",
"|. c #AEB1BB",
" X c #C0AF94",
".X c #C3B197",
"XX c #C6B49A",
"oX c None",
/* pixels */
"oXoXoXoXoXoXoXoXoXoXoXoXoXoXoXoXoXoXoXoXoXoXoXoXoXoXoXoXoXoXoXoXoXoXoXoXoXoXoXoXoXoXoXoXoXoXoXoXoXoX",
"oXoXoXoXoXoXoXoXoXoXoXoXoXoXoXoXoXoXoXoXoXoXoXoXoXoXoXoXoXoXoXoXoXoXoXoXoXoXoXoXoXoXoXoXoXoXoXoXoXoX",
"oXoXoXoXoXoXoXoXoXoXoX                    oXoXoX          oXoXoXoXoXoXoXoXoXoXoXoXoXoXoXoXoXoXoXoXoX",
"oXoXoXoXoXoXoXoXoXoXoX                    oXoXoX          oXoXoXoXoXoXoXoXoXoXoXoXoXoXoXoXoXoXoXoXoX",
"oXoXoXoXoXoXoXoXoXoXoX    i v m m m i r r &   2 m v c                 oXoXoXoXoXoXoXoXoXoXoXoXoXoXoX",
"oXoXoXoXoXoXoXoXoXoXoX  . V C C C S N y i &   8 S C N                 oXoXoXoXoXoXoXoXoXoXoXoXoXoXoX",
"oXoXoXoXoXoXoXoXoXoXoX    7 0 i C V V M N i 8 i V V M r r c M m m m v @   oXoXoXoXoXoXoXoXoXoXoXoXoX",
"oXoXoXoXoXoXoXoXoXoXoX        q C V V V C v i c C C V i t N S C V S V @   oXoXoXoXoXoXoXoXoXoXoXoXoX",
"oXoXoXoXoXoXoXoX    < u q M M N V V V V V N N V V V V N M V V V V V V N N u   X oXoXoXoXoXoXoXoXoXoX",
"oXoXoXoXoXoXoXoX    < i u V C C V V V V V V V C V V V C C V V V V V V V S i     oXoXoXoXoXoXoXoXoXoX",
"oXoXoXoXoXoXoX& 3 < r m v V V V C V V V V V V V V V V V V V V V V V V V N v u r oXoXoXoXoXoXoXoXoXoX",
"oXoXoXoXoX    3 c i m C V V V V C C C V V V V V V V V C V C V V V V V V V V S N @     oXoXoXoXoXoXoX",
"oXoXoXoXoX    8 i u v C N V C V v v M V V V V V V V V m m m M V V C C V V V V N @     oXoXoXoXoXoXoX",
"oXoXoXoXoX    8 i u v C C C C M t i c C V V V C V V N t i 3 # 1 v v v C C V V V @     oXoXoXoXoXoXoX",
"oXoXoXoXoX    8 c u i m v v v c u i c C V V V V V V V c r [ :.;.>.>.;.N v M C V r 8 8 @   oXoXoXoXoX",
"oXoXoXoXoX    8 i i u u u u u u i i c V V V V V V C N r   >.y.8.r.r.7.i ; v C V i c i @     oXoXoXoX",
"oXoXoXoXoX    8 c i c c c i t c i i c C V V V C N V V D V >.8.7.7.7.6.G A C M M i u i @     oXoXoXoX",
"oXoXoXoXoX    3 c t c C V i u r 1 1 t C V V V b 3 + V r.t.7.7.7.4.4.4.e.y.;., i i u i @     oXoXoXoX",
"oXoXoXoXoX    8 i t c C V v c V J J H V V V V S K H P <.,.7.i.u.i.i.u.>.1.' # u t i i @     oXoXoXoX",
"oXoXoXoXoX    8 i u m C C C v { 8.y.,.  1 N M P 7.r.2.$   w..X'.'..X).j   .   . i i c @     oXoXoXoX",
"oXoXoXoXoX    8 i t c M M C v { 8.8.2.K P C t ] p.p.t.e   w..X'.'.'._.k + *   . q q r @   oXoXoXoXoX",
"oXoXoXoXoX    8 c i i u t V v { r.7.7.r.y.K   ..'.'.(.9   w..X'.'.'._.j   $           oXoXoXoXoXoXoX",
"oXoXoXoXoX    8 i i u i i V v { r.7.7.7.7.K O ...X'.^.h   w..X'.'.'._.Z 7 7           oXoXoXoXoXoXoX",
"oXoXoXoXoXoXoXoX@ . 2 i u c 3 [ r.7.7.7.7./.(.).'.'.'.(.(.).'.'.'.'.'.(.'.5.  % oXoXoXoXoXoXoXoXoXoX",
"oXoXoXoXoXoXoXoX    < i u c , P 7.7.7.7.7./. X'.'.'.'.'.'.'.'.'.'.'.'.'..X0.  % oXoXoXoXoXoXoXoXoXoX",
"oXoXoXoXoXoXoXoX    < c i u u c M u K 8.8.7.7.i.'.'.'.'.'.'.'..X'.'.'.r.r.;.  $ oXoXoXoXoXoXoXoXoXoX",
"oXoXoXoXoXoXoXoX    < i u i i i i 1 H 7.6.7.7.u.'.'.).).).).'.).)._.(.3.7.'   @ oXoXoXoXoXoXoXoXoXoX",
"oXoXoXoXoXoXoXoX    < i u V V V V V C C M 1.8.7.t.e.7.7.7.7.7.7.7.7.3.g . oXoXoXoXoXoXoXoXoXoXoXoXoX",
"oXoXoXoXoXoXoXoX    < c i V C C V V V V m ,.8.8.4.4.4.4.4.8.8.r.7.r.7.e   oXoXoXoXoXoXoXoXoXoXoXoXoX",
"oXoXoXoXoXoXoXoX    0 c i m m M V V V C M 5.Y.Y.Q.Y.Y.Y.Q.-.J ' J K J 0 . oXoXoXoXoXoXoXoXoXoXoXoXoX",
"oXoXoXoXoXoXoXoX    O : : : - t C V C C x F.J.G.H.G.G.G.J.X.- <           oXoXoXoXoXoXoXoXoXoXoXoXoX",
"oXoXoXoXoXoXoXoX%    .^.~.~.^.5.4 m m A b F.H.!.].].].].}.%.- A ,.,.,.,.1.K   X oXoXoXoXoXoXoXoXoXoX",
"oXoXoXoXoXoXoXoX%   $.XX.X'.XXa.O g c n x *.H.!.|.{.{.{.|.&.O H 8.8.r.8.y.}   $ oXoXoXoXoXoXoXoXoXoX",
"oXoXoXoXoXoXoXoX%   $.XX'.'..Xw.+ z T K.A.K.K.L.I.I.P.P.P.A.E o.7.7.7.7.r.}   $ oXoXoXoXoXoXoXoXoXoX",
"oXoXoXoXoXoXoXoX$   ..XX'.'..Xq.+ z Q B.N.N.N.C.m.b.b.m.m.x.s.Z.7.7.7.7.r.{   @ oXoXoXoXoXoXoXoXoXoX",
"oXoXoXoXoXoXoXoXoXoXoXZ F F G ` W ! g.j.j.v.M.M.B.N.N.N.N.M.M.A.A A A m g oXoXoXoXoXoXoXoXoXoXoXoXoX",
"oXoXoXoXoXoXoXoXoXoXoX    1 4 W l.j.j.j.g.n.U.U.B.N.N.M.M.N.N.v.4 4 4     oXoXoXoXoXoXoXoXoXoXoXoXoX",
"oXoXoXoXoXoXoXoXoXoXoXX $ u q k W T W W R ! h.h.x.x.b.N.M.M.M.M.k.k.~ d . oXoXoXoXoXoXoXoXoXoXoXoXoX",
"oXoXoXoXoXoXoXoXoXoXoX    u c z w w 5         s j.d.h.B.N.N.M.M.V.V.B.d   oXoXoXoXoXoXoXoXoXoXoXoXoX",
"oXoXoXoXoXoXoXoXoXoXoXo o 0 8 9 e < k @.+.+.@.O.R I W z.z.b.N.M.~ ~ ~ f 3 < oXoXoXoXoXoXoXoXoXoXoXoX",
"oXoXoXoXoXoXoXoXoXoXoX              Y W.E.T.W.&.    a g.d.b.V.M.6 6 6 y c 3     oXoXoXoXoXoXoXoXoXoX",
"oXoXoXoXoXoXoXoXoXoXoX@.#.@.#.@.@.@.%.D.D.D.D.*.@.#.+.I I Q o.^ B g g i c 9   = oXoXoXoXoXoXoXoXoXoX",
"oXoXoXoXoXoXoXoXE.W.T.T.T.T.T.T.T.E.D.D.D.D.D.D.T.E.*.    - > > 4 5 5 5 6 +   = D.!.E.oXoXoXoXoXoXoX",
"oXoXoXoXoXoXoXoXY.D.D.D.D.D.D.D.D.D.D.D.D.D.D.D.D.D.*./ / ( _ _ _ _ _ _ _ ( / ( =.W.0.oXoXoXoXoXoXoX",
"oXoXoXoXoXoXoXoXE.W.E.D.D.D.D.D.D.D.D.D.D.D.D.D.D.D.D.T.T.D.T.D.Y.D.D.T.D.T.T.T.E.!.W.oXoXoXoXoXoXoX",
"oXoXoXoXoXoXoXoXoXoXoXT.T.D.D.D.D.D.D.D.D.D.D.D.D.D.D.D.D.D.D.D.D.D.D.D.D.D.T.T.oXoXoXoXoXoXoXoXoXoX",
"oXoXoXoXoXoXoXoXoXoXoXE.W.T.D.T.E.T.T.T.D.T.E.T.T.T.D.T.T.E.T.T.T.T.D.T.T.T.Q.T.oXoXoXoXoXoXoXoXoXoX",
"oXoXoXoXoXoXoXoXoXoXoXoXoXoXoXoXoXoXoXoXoXoXoXoXoXoXoXoXoXoXoXoXoXoXoXoXoXoXoXoXoXoXoXoXoXoXoXoXoXoX",
"oXoXoXoXoXoXoXoXoXoXoXoXoXoXoXoXoXoXoXoXoXoXoXoXoXoXoXoXoXoXoXoXoXoXoXoXoXoXoXoXoXoXoXoXoXoXoXoXoXoX",
"oXoXoXoXoXoXoXoXoXoXoXoXoXoXoXoXoXoXoXoXoXoXoXoXoXoXoXoXoXoXoXoXoXoXoXoXoXoXoXoXoXoXoXoXoXoXoXoXoXoX"
};
