/* XPM */
static char *_2f3a72839254337f078f55a46d20b16g7gT8rzYBUbZ83DF[] = {
/* columns rows colors chars-per-pixel */
"50 50 186 2 ",
"   c None",
".  c #00007D",
"X  c #E7DE75",
"o  c #E9E075",
"O  c #F0E87E",
"+  c #EEE56A",
"@  c #000084",
"#  c #00008A",
"$  c #0C008A",
"%  c #160085",
"&  c #16008B",
"*  c #1B018B",
"=  c #1E088D",
"-  c #1F1B8E",
";  c #260082",
":  c #2E0284",
">  c #26008C",
",  c #33028D",
"<  c #300684",
"1  c #391E86",
"2  c #38148E",
"3  c #3C1C8E",
"4  c #321C8D",
"5  c #3B1B90",
"6  c #242D8D",
"7  c #3D2687",
"8  c #3F2988",
"9  c #25328E",
"0  c #3713A7",
"q  c #402988",
"w  c #432894",
"e  c #412792",
"r  c #4935A8",
"t  c #5C4D92",
"y  c #59479A",
"u  c #5A489D",
"i  c #655995",
"p  c #62539A",
"a  c #6B5E9F",
"s  c #675697",
"d  c #5444A7",
"f  c #5A4DA8",
"g  c #6657A2",
"h  c #786EA2",
"j  c #726BA4",
"k  c #7D73A4",
"l  c #7C73AB",
"z  c #837C9A",
"x  c #837CAC",
"c  c #8A849D",
"v  c #8F8D9F",
"b  c #948D9C",
"n  c #9E9498",
"m  c #A49C9F",
"M  c #8E87A1",
"N  c #8780AD",
"B  c #8C83AB",
"V  c #958FAE",
"C  c #9B86A1",
"Z  c #9A97A2",
"A  c #9892AD",
"S  c #9B96AC",
"D  c #8D82B4",
"F  c #9186B9",
"G  c #9992B3",
"H  c #9F95BA",
"J  c #9C98B2",
"K  c #B287A7",
"L  c #B38CA8",
"P  c #B69CAB",
"I  c #B89BAD",
"U  c #A19AB5",
"Y  c #A097B9",
"T  c #A59CBB",
"R  c #A9A4A8",
"E  c #B9A3AF",
"W  c #B3AEA9",
"Q  c #B6B2AB",
"!  c #B9B7AC",
"~  c #ABA1BF",
"^  c #A4A0B4",
"/  c #B7A1B2",
"(  c #BBACB2",
")  c #BDBAB4",
"_  c #BCB8B4",
"`  c #C1B998",
"'  c #DFA6A8",
"]  c #DFAAA9",
"[  c #C1BFAB",
"{  c #C3A7B4",
"}  c #C1BEB4",
"|  c #C1B6B7",
" . c #E7A5A7",
".. c #E0AEAA",
"X. c #EBACAA",
"o. c #EBB2AB",
"O. c #EBBBAD",
"+. c #D0C681",
"@. c #E6DF92",
"#. c #EDE689",
"$. c #F9F280",
"%. c #ECE694",
"&. c #C5C2B6",
"*. c #CAC7B0",
"=. c #CECCB2",
"-. c #C8C5B8",
";. c #C7C4B9",
":. c #D1CFB3",
">. c #D1CFBE",
",. c #CFD1B3",
"<. c #D4D2B4",
"1. c #DCDCB7",
"2. c #D5D3BB",
"3. c #D8D6BB",
"4. c #DCDDBC",
"5. c #E1DCA6",
"6. c #ECC5B1",
"7. c #E3C2B0",
"8. c #F3CEB4",
"9. c #ECD1B5",
"0. c #E9DFB9",
"q. c #F3D6B7",
"w. c #F4DFB9",
"e. c #FADFBA",
"r. c #F3EFAB",
"t. c #F5F2AB",
"y. c #F8F4A6",
"u. c #E5E4B7",
"i. c #E3E2BA",
"p. c #ECECBD",
"a. c #EBE7BA",
"s. c #F1E2B7",
"d. c #F3E6B9",
"f. c #F2EBBD",
"g. c #F8EFBF",
"h. c #F8F6B7",
"j. c #F4F3BE",
"k. c #F9F9BF",
"l. c #9C8FC5",
"z. c #ACA2C3",
"x. c #B6ADC5",
"c. c #B7ACD3",
"v. c #C6BFCB",
"b. c #C7BDD3",
"n. c #C9BFD7",
"m. c #CDC8C3",
"M. c #CBC3D4",
"N. c #D4CCDA",
"B. c #DED8D4",
"V. c #DED6DE",
"C. c #DFD8DC",
"Z. c #DAD9C1",
"A. c #E8CDC0",
"S. c #E2DFC9",
"D. c #F8DBC8",
"F. c #F1D7C4",
"G. c #E3DDD7",
"H. c #E5E5C2",
"J. c #E9E5CF",
"K. c #E9E7CB",
"L. c #F2E4C3",
"P. c #FEEFC7",
"I. c #FFECC9",
"U. c #F1EFC0",
"Y. c #F5F5C1",
"T. c #F3F2C1",
"R. c #F8F6C1",
"E. c #FBF6C4",
"W. c #FAF9C3",
"Q. c #FDFDC5",
"!. c #FAFAC2",
"~. c #FFFDCE",
"^. c #FAF5C7",
"/. c #E8E4D0",
"(. c #E8E3D1",
"). c #EEEAD3",
"_. c #E7E2D2",
"`. c #F3EFD4",
"'. c #F7F3D7",
"]. c #DBD2E1",
"[. c #DDD5E2",
"{. c #E4DCE3",
"}. c #E5DCE3",
"|. c #EFE8E7",
" X c #E8E1E2",
".X c #F6F1E2",
/* pixels */
"                                                                                                    ",
"                                                                                                    ",
"                                                                                                    ",
"                                                                                                    ",
"                                                                                                    ",
"                                                                                                    ",
"                                                                                                    ",
"                            , , , , , ,                     , , , , , ,                             ",
"                          z c U A A U M z                 z M U A A U c z                           ",
"                        t R ,.H.4.4.H.:.R i             i R :.H.4.4.H.,.R t                         ",
"                      & p | f.Q.R.R.Q.T.;.a &         & a ;.T.Q.R.R.Q.p.| p &                       ",
"                      = p ( 9.e.q.w.E.T.} y @ : ; ; : @ y ) T.E.w.q.e.9.( p =                       ",
"                      6 t L ..O.o.6.f.p.! i 3 t t t t 3 i ! p.f.6.o.O...L t 6                       ",
"                      9 t K ' X. .O.d.T.>.T H z.z.z.z.H T >.T.d.O. .X.' K t 9                       ",
"                      9 t L ..o.X.O.s.T./.N.N.N.N.N.N.N.N./.T.s.O.X.o.] L t 9                       ",
"                      - t P 7.8.6.9.d.T.).{.{.{.{.{.{.{.{.).T.d.9.6.8.7.P t -                       ",
"                      & t ( 0.g.f.f.j.T./.C.[.C.C.C.[.[.C./.T.j.f.f.g.0.( t &                       ",
"                      $ t _ p.Q.Y.Y.j.T.(.C.].C.C.C.C.].C.(.T.j.Y.Y.Q.p._ t $                       ",
"                      # t _ a.Q.Y.Y.j.T._.V.].].].].].].V._.U.j.Y.Y.Q.a.) t #                       ",
"                      & t _ a.W.Y.T.j.T./.C.C.C.C.C.C.C.C./.T.j.T.Y.W.a._ t &                       ",
"                    t 2 t Q a.Q.W.W.Y.T.K.J./.J.J.J.J./.J.K.T.Y.W.W.Q.a.Q t 2 t                     ",
"                  t p w t W a.!.Y.Y.T.T.T.T.T.T.T.T.T.T.T.T.T.T.Y.Y.Q.a.W t w p t                   ",
"                    t 3 t ! p.p.=.*.i.Y.Y.j.j.j.j.j.j.j.j.Y.Y.i.*.=.p.p.! t 3 t                     ",
"                      & t } f.1.c z =.Y.R.T.T.T.T.T.T.T.T.W.Y.=.z c 1.f.} t *                       ",
"                      > t ) p.i.Z b <.Y.R.T.T.T.T.T.T.T.T.R.Y.<.b Z i.p.) t >                       ",
"                  t t 3 t Q p.j.1.1.a.T.T.T.T.T.T.T.T.T.T.T.T.a.1.1.T.p.Q t 3 t t                   ",
"                  t t e t W a.Q.E.R.Y.T.T.T.T.T.T.T.T.T.T.T.T.Y.R.E.Q.a.W t e t t                   ",
"                    t 4 p | L.P.I.P.E.W.W.W.W.W.W.W.W.W.W.W.W.E.P.I.P.L.| p 4 t                     ",
"                      $ t / A.D.F.F.L.j.j.j.T.U.T.T.T.f.j.j.j.L.F.F.D.A./ t $                       ",
"                          C P { I E | &.;.&.&.) ) ) ) } &.;.&.| E I { P C                           ",
"                            i s t s h x x x l l l l l l x x x h s t s i                             ",
"                          k N G Z v j d r d h b m R J l d r d j v Z G N k                           ",
"                        t G b.B.H.<.S d 0 f n +.@.a.Z.^ f 0 d S <.H.B.b.G t                         ",
"                      : g c.[..X~.j.&.V D G ` X $.y.p.&.A N V &.j.~..X[.c.g :                       ",
"                      : g c.[..X~.W.i.2.2.3.5.o + O %.5.3.2.2.i.W.~..X[.c.g <                       ",
"                      : t H M.G.H.p.j.W.!.W.t.#.o o #.r.W.!.W.j.p.H.G.M.H t :                       ",
"                          B Y x.R [ u.W.!.k.h.t.y.y.t.h.k.!.W.u.[ R x.Y B                           ",
"                            t u 5 z :.Y.W.T.T.T.j.T.T.T.T.W.Y.:.z 5 u t                             ",
"                              % @ l m.`.'.).S.>.;.;.>.S.).'.`.m.l @ %                               ",
"                                1 D M. X|.{.v.B i i B v.{.|. XM.D 1                                 ",
"                                1 h ~ n.N.b.T y . . y T b.N.n.~ h 1                                 ",
"                                    k F l.D k         k D l.F k                                     ",
"                                    7 q 8 8             8 8 q 7                                     ",
"                                                                                                    ",
"                                                                                                    ",
"                                                                                                    ",
"                                                                                                    ",
"                                                                                                    ",
"                                                                                                    ",
"                                                                                                    "
};
