/* XPM */
static char *result[] = {
/* columns rows colors chars-per-pixel */
"50 50 246 2 ",
"   c black",
".  c #000001",
"X  c #000004",
"o  c #1E0000",
"O  c #00001B",
"+  c #00001E",
"@  c #34001E",
"#  c #000023",
"$  c #000223",
"%  c #000E25",
"&  c #000428",
"*  c #1E0028",
"=  c #001329",
"-  c #00142A",
";  c #00162A",
":  c #00162B",
">  c #00182B",
",  c #05182B",
"<  c #06182B",
"1  c #00192D",
"2  c #001A2C",
"3  c #00192E",
"4  c #001B2E",
"5  c #081B2F",
"6  c #0D192C",
"7  c #0F1B2C",
"8  c #0E1F2E",
"9  c #101B2D",
"0  c #121B2D",
"q  c #151B2D",
"w  c #181A2C",
"e  c #1B1D2E",
"r  c #1A1D2F",
"t  c #181E2E",
"y  c #1C1E2F",
"u  c #1D1E2F",
"i  c #1D1F2F",
"p  c #001930",
"a  c #001D30",
"s  c #001C31",
"d  c #071C30",
"f  c #151E32",
"g  c #1D1E30",
"h  c #1D1F30",
"j  c #20012A",
"k  c #241C2D",
"l  c #261D2F",
"z  c #291D2E",
"x  c #341F2F",
"c  c #3B1F2F",
"v  c #211F31",
"b  c #2A1C31",
"n  c #15202F",
"m  c #002532",
"M  c #002235",
"N  c #002535",
"B  c #052734",
"V  c #172333",
"C  c #1B2331",
"Z  c #1A2432",
"A  c #1F2533",
"S  c #1F2334",
"D  c #252030",
"F  c #232433",
"G  c #262732",
"H  c #252734",
"J  c #2A2032",
"K  c #222F37",
"L  c #2B2C35",
"P  c #2F2E37",
"I  c #302536",
"U  c #342436",
"Y  c #3D2632",
"T  c #392636",
"R  c #372838",
"E  c #3A2D3B",
"W  c #3D3F33",
"Q  c #4C3339",
"!  c #473A4A",
"~  c #553746",
"^  c #543A48",
"/  c #6F3A52",
"(  c #683D51",
")  c #6D3954",
"_  c #743A53",
"`  c #733F55",
"'  c #723C57",
"]  c #753C55",
"[  c #5D5C53",
"{  c #6E4957",
"}  c #6D4759",
"|  c #67495C",
" . c #68495E",
".. c #754357",
"X. c #7D465C",
"o. c #77485A",
"O. c #704A5D",
"+. c #784C5D",
"@. c #794F5F",
"#. c #7E4C5D",
"$. c #7D4F5E",
"%. c #7E4E5E",
"&. c #7D505E",
"*. c #686458",
"=. c #5A5164",
"-. c #5E5264",
";. c #7A4E60",
":. c #725263",
">. c #745363",
",. c #765264",
"<. c #7A5160",
"1. c #7B5163",
"2. c #785463",
"3. c #7C5462",
"4. c #7C5A64",
"5. c #7B5469",
"6. c #797070",
"7. c #7D7473",
"8. c #B81C34",
"9. c #962434",
"0. c #803B3E",
"q. c #BA323C",
"w. c #C60029",
"e. c #DC2132",
"r. c #D82238",
"t. c #D92839",
"y. c #E22030",
"u. c #E52639",
"i. c #E03A39",
"p. c #E03E3E",
"a. c #BD3845",
"s. c #DD3E43",
"d. c #E43F41",
"f. c #974656",
"g. c #9E4456",
"h. c #A84955",
"j. c #A84956",
"k. c #AF4D57",
"l. c #AB4F59",
"z. c #B24652",
"x. c #B84757",
"c. c #B14854",
"v. c #BC4B53",
"b. c #AC515C",
"n. c #BF5156",
"m. c #B2585E",
"M. c #815362",
"N. c #825764",
"B. c #8D5762",
"V. c #856670",
"C. c #926A73",
"Z. c #8E7076",
"A. c #82777B",
"S. c #847A79",
"D. c #857A7E",
"F. c #8A7F7F",
"G. c #A36B6A",
"H. c #C3464D",
"J. c #D74446",
"K. c #D94247",
"L. c #DD4544",
"P. c #DC4646",
"I. c #DC4847",
"U. c #D84749",
"Y. c #DB4748",
"T. c #D74D4C",
"R. c #D8494A",
"E. c #DC4B4A",
"W. c #DB4B4C",
"Q. c #CF4F51",
"!. c #C05358",
"~. c #DA5250",
"^. c #DB5350",
"/. c #DB5351",
"(. c #DC5350",
"). c #DE5250",
"_. c #DB5552",
"`. c #D1565E",
"'. c #D75859",
"]. c #D95D59",
"[. c #E04144",
"{. c #E24948",
"}. c #E54D4A",
"|. c #DC615F",
" X c #D9655D",
".X c #E2695D",
"XX c #E56B5C",
"oX c #CE6E6C",
"OX c #D76663",
"+X c #DC7669",
"@X c #E76C61",
"#X c #E37A67",
"$X c #8C817F",
"%X c #EE8270",
"&X c #E09279",
"*X c #9B7D81",
"=X c #8C8182",
"-X c #938784",
";X c #A38C8C",
":X c #BB928F",
">X c #A58F90",
",X c #BE8E90",
"<X c #A69F9C",
"1X c #AEA19B",
"2X c #A8A29E",
"3X c #B4A09C",
"4X c #BBAD9E",
"5X c #B7A6A1",
"6X c #B8A3A0",
"7X c #BDACA8",
"8X c #BEAEAB",
"9X c #C0A19C",
"0X c #C3B096",
"qX c #C1B596",
"wX c #C7BC9B",
"eX c #DEB89E",
"rX c #C3B0A6",
"tX c #C0B2AB",
"yX c #C0B4AD",
"uX c #C4B5AE",
"iX c #CABBAE",
"pX c #D9B7A1",
"aX c #C4B4B0",
"sX c #C2BDB5",
"dX c #CFC2A0",
"fX c #D9CBA6",
"gX c #D6C7B3",
"hX c #D8CEB8",
"jX c #D2D2BA",
"kX c #E8C3A1",
"lX c #F1CEA8",
"zX c #EDD2AC",
"xX c #F3D5AD",
"cX c #ECDBB3",
"vX c #E8DFB7",
"bX c #EDDDBE",
"nX c #EFE0BB",
"mX c #F1E3B7",
"MX c #F1E2B8",
"NX c #F0E8BD",
"BX c #E3E0C0",
"VX c #FDF1C4",
"CX c #FFF2C5",
"ZX c #FFF7CB",
"AX c #FFF8CA",
"SX c None",
/* pixels */
"SXSXSXSXSXSXSXSXSXSXSXSXSXSXSXSXSXSXSXSXSXSXSXSXSXSXSXSXSXSXSXSXSXSXSXSXSXSXSXSXSXSXSXSXSXSXSXSXSXSX",
"SXSXSXSXSXSXSXSXSXSXSXSXSXSXSXSXSXSXSXSXSXSXSXSXSXSXSXSXSXSXSXSXSXSXSXSXSXSXSXSXSXSXSXSXSXSXSXSXSXSX",
"SXSXSXSXSXSXSXSXSXSXSXSXSXSXSXSXSXSXSXSXSXSXSXSXSXSXSXSXSXSXSXSXSXSXSXSXSXSXSXSXSXSXSXSXSXSXSXSXSXSX",
"SXSXSXSXSXSXSXSXSXSXSXSXSXSXSXSXSXSXSXSXSXSXSXSXSXSXSXSXSXSXSXSXSXSXSXSXSXSXSXSXSXSXSXSXSXSXSXSXSXSX",
"SXSXSXSXSXSXSXSXSXSXSXSXSXSXSXSXSXSXSXSXSXSXSXSXSXSXSXSXSXSXSXSXSXSXSXSXSXSXSXSXSXSXSXSXSXSXSXSXSXSX",
"SXSXSXSXSXSXSXSXSXSXSXSXSXSXSXSXSXSXSXSXSXSXSXSXSXSXSXSXSXSXSXSXSXSXSXSXSXSXSXSXSXSXSXSXSXSXSXSXSXSX",
"SXSXSXSXSXSXSXSXSXSXSXSXSXSXSXSXSXSXSXSXSXSXSXSXSXSXSXSXSXSXSXSXSXSXSXSXSXSXSXSXSXSXSXSXSXSXSXSXSXSX",
"SXSXSXSXSXSXSXSXSXSXSXSXSXSXSXSXSXSXSXSXSXSXSXSXSXSXSXSXSXSXSXSXSXSXSXSXSXSXSXSXSXSXSXSXSXSXSXSXSXSX",
"SXSXSXSXSXSXSXSXSXSXSXSXSXSXSXSXSXSXSXSXSXSXSXSXSXSXSXSXSXSXSXSXSXSXSXSXSXSXSXSXSXSXSXSXSXSXSXSXSXSX",
"SXSXSXSXSXSXSXSXSXSXSXSXSXSXSXSXSXSXSXSXSXSXSXSXSXSXSXSXSXSXSXSXSXSXSXSXSXSXSXSXSXSXSXSXSXSXSXSXSXSX",
"SXSXSXSXSXSXSXSXSXSXSXSXSXSXSXSXSXSXSXSXSXSXSXSXSXSXSXSXSXSXSXSXSXSXSXSXSXSXSXSXSXSXSXSXSXSXSXSXSXSX",
"SXSXSXSXSXSXSXSXSXSXSXSXSXSXSXSXSXSXSXSXSXSXSXSXSXSXSXSXSXSXSXSXSXSXSXSXSXSXSXSXSXSXSXSXSXSXSXSXSXSX",
"SXSXSXSXSXSXSXSXSXSXSXSXSXSXSXSXSXSXSXSXSXSXSXSXSXSXSXSXSXSXSXSXSXSXSXSXSXSXSXSXSXSXSXSXSXSXSXSXSXSX",
"SXSXSXSXSXSXSXSXSXSXSXSXSXSXSXSXSXSXSXSXSXSXSXSXSXSXSXSXSXSXSXSXSXSXSXSXSXSXSXSXSXSXSXSXSXSXSXSXSXSX",
"SXSXSXSXSXSXSXSXSXSXSXSXSXSXSXSXSXSXSXSXSXSXSXSXSXSXSXSXSXSXSXSXSXSXSXSXSXSXSXSXSXSXSXSXSXSXSXSXSXSX",
"SXSXSXSXSXSXSXSXSXSXSXSXSXSXSXSXSXSXSXSXSXSXSXSXSXSXSXSXSXSXSXSXSXSXSXSXSXSXSXSXSXSXSXSXSXSXSXSXSXSX",
"SXSXSXSXSXSXSXSXSXSXSXSXSXSXSXSXSXSXSXSXSXSXSXSXl a s N B G SXSXSXSXSXSXSXSXSXSXSXSXSXSXSXSXSXSXSXSX",
"SXSXSXSXSXSXSXSXSXSXSXSXSXSXSXSXSXSXSXSXSXSXx 2 p c Y @ o # L SXSXSXSXSXSXSXSXSXSXSXSXSXSXSXSXSXSXSX",
"SXSXSXSXSXSXSXSXSXSXSXSXSXSXSXSXSXSXSXSXSXk 3 Q 0.T.K.#X&X[   SXSXSXSXSXSXSXSXSXSXSXSXSXSXSXSXSXSXSX",
"SXSXSXSXSXSXSXSXSXSXSXSXSXSXSXSXSXSXSXSX1 Z 9.w.u.~.e.pXBXcX*.+ P SXSXSXSXSXSXSXSXSXSXSXSXSXSXSXSXSX",
"SXSXSXSXSXSXSXSXSXSXSXSXSXSXSXSXSXSXSXw m 8.%XlXkX_.I.`.6XVX0X  K g SXSXSXSXSXSXSXSXSXSXSXSXSXSXSXSX",
"SXSXSXSXSXSXSXSXSXSXSXSXSXSXSXSXSXSXz M q.@XNXjXrX(.W.L.]..Xm.O.T ; h SXSXSXSXSXSXSXSXSXSXSXSXSXSXSX",
"SXSXSXSXSXSXSXSXSXSXSXSXSXSXSXSXSXv % ! x.XXeX,X'.P.^./.R.d.c.=.#.I : SXSXSXSXSXSXSXSXSXSXSXSXSXSXSX",
"SXSXSXSXSXSXSXSXSXSXSXSXSXSXSXSXr d D } -.j.y.i.E.Y.t.r.{.Q.l.v.;.+.R 5 SXSXSXSXSXSXSXSXSXSXSXSXSXSX",
"SXSXSXSXSXSXSXSXSXSXSXSXSXSXSXSX7 J | b.J.H.B.!.s.+XzXxXG.g.U.}.n.1.~ = i SXSXSXSXSXSXSXSXSXSXSXSXSX",
"SXSXSXSXSXSXSXSXSXSXSXSXSXSXSXSX, U ,.h.|.OXp.k.2.7XhXvX X[.).9X3XX.^ - h SXSXSXSXSXSXSXSXSXSXSXSXSX",
"SXSXSXSXSXSXSXSXSXSXSXSXSXSXSXSXq f { ' 2XyXoXf.>.;X>X5.z.a.:XsX5X` E < SXSXSXSXSXSXSXSXSXSXSXSXSXSX",
"SXSXSXSXSXSXSXSXSXSXSXSXSXSXSXSXSX9 2 ( C.tX<X) M.] _ %.:. .V.*XZ.b > y SXSXSXSXSXSXSXSXSXSXSXSXSXSX",
"SXSXSXSXSXSXSXSXSXSXSXSXSXSXSXSXSXr 6 S j 4.N.o.@.3.3.<.$.&.../ * 4 u SXSXSXSXSXSXSXSXSXSXSXSXSXSXSX",
"SXSXSXSXSXSXSXSXSXSXSXSXSXSXSXSXSXSXSX0 8 & $ A           . C V n e SXSXSXSXSXSXSXSXSXSXSXSXSXSXSXSX",
"SXSXSXSXSXSXSXSXSXSXSXSXSXSXSXSXSXSXSXSXSXt H   7.-XF.D.=X6.O F SXSXSXSXSXSXSXSXSXSXSXSXSXSXSXSXSXSX",
"SXSXSXSXSXSXSXSXSXSXSXSXSXSXSXSXSXSXSXSXSXSXX S.uX8XgXnXbX1X  SXSXSXSXSXSXSXSXSXSXSXSXSXSXSXSXSXSXSX",
"SXSXSXSXSXSXSXSXSXSXSXSXSXSXSXSXSXSXSXSXSXSX  $XaXiXmXMXCXqX  SXSXSXSXSXSXSXSXSXSXSXSXSXSXSXSXSXSXSX",
"SXSXSXSXSXSXSXSXSXSXSXSXSXSXSXSXSXSXSXSXSXSXSX  A.4XAXZXfX  SXSXSXSXSXSXSXSXSXSXSXSXSXSXSXSXSXSXSXSX",
"SXSXSXSXSXSXSXSXSXSXSXSXSXSXSXSXSXSXSXSXSXSXSXSX  W dXwXSXSXSXSXSXSXSXSXSXSXSXSXSXSXSXSXSXSXSXSXSXSX",
"SXSXSXSXSXSXSXSXSXSXSXSXSXSXSXSXSXSXSXSXSXSXSXSXSXSXSXSXSXSXSXSXSXSXSXSXSXSXSXSXSXSXSXSXSXSXSXSXSXSX",
"SXSXSXSXSXSXSXSXSXSXSXSXSXSXSXSXSXSXSXSXSXSXSXSXSXSXSXSXSXSXSXSXSXSXSXSXSXSXSXSXSXSXSXSXSXSXSXSXSXSX",
"SXSXSXSXSXSXSXSXSXSXSXSXSXSXSXSXSXSXSXSXSXSXSXSXSXSXSXSXSXSXSXSXSXSXSXSXSXSXSXSXSXSXSXSXSXSXSXSXSXSX",
"SXSXSXSXSXSXSXSXSXSXSXSXSXSXSXSXSXSXSXSXSXSXSXSXSXSXSXSXSXSXSXSXSXSXSXSXSXSXSXSXSXSXSXSXSXSXSXSXSXSX",
"SXSXSXSXSXSXSXSXSXSXSXSXSXSXSXSXSXSXSXSXSXSXSXSXSXSXSXSXSXSXSXSXSXSXSXSXSXSXSXSXSXSXSXSXSXSXSXSXSXSX",
"SXSXSXSXSXSXSXSXSXSXSXSXSXSXSXSXSXSXSXSXSXSXSXSXSXSXSXSXSXSXSXSXSXSXSXSXSXSXSXSXSXSXSXSXSXSXSXSXSXSX",
"SXSXSXSXSXSXSXSXSXSXSXSXSXSXSXSXSXSXSXSXSXSXSXSXSXSXSXSXSXSXSXSXSXSXSXSXSXSXSXSXSXSXSXSXSXSXSXSXSXSX",
"SXSXSXSXSXSXSXSXSXSXSXSXSXSXSXSXSXSXSXSXSXSXSXSXSXSXSXSXSXSXSXSXSXSXSXSXSXSXSXSXSXSXSXSXSXSXSXSXSXSX",
"SXSXSXSXSXSXSXSXSXSXSXSXSXSXSXSXSXSXSXSXSXSXSXSXSXSXSXSXSXSXSXSXSXSXSXSXSXSXSXSXSXSXSXSXSXSXSXSXSXSX",
"SXSXSXSXSXSXSXSXSXSXSXSXSXSXSXSXSXSXSXSXSXSXSXSXSXSXSXSXSXSXSXSXSXSXSXSXSXSXSXSXSXSXSXSXSXSXSXSXSXSX",
"SXSXSXSXSXSXSXSXSXSXSXSXSXSXSXSXSXSXSXSXSXSXSXSXSXSXSXSXSXSXSXSXSXSXSXSXSXSXSXSXSXSXSXSXSXSXSXSXSXSX",
"SXSXSXSXSXSXSXSXSXSXSXSXSXSXSXSXSXSXSXSXSXSXSXSXSXSXSXSXSXSXSXSXSXSXSXSXSXSXSXSXSXSXSXSXSXSXSXSXSXSX",
"SXSXSXSXSXSXSXSXSXSXSXSXSXSXSXSXSXSXSXSXSXSXSXSXSXSXSXSXSXSXSXSXSXSXSXSXSXSXSXSXSXSXSXSXSXSXSXSXSXSX",
"SXSXSXSXSXSXSXSXSXSXSXSXSXSXSXSXSXSXSXSXSXSXSXSXSXSXSXSXSXSXSXSXSXSXSXSXSXSXSXSXSXSXSXSXSXSXSXSXSXSX",
"SXSXSXSXSXSXSXSXSXSXSXSXSXSXSXSXSXSXSXSXSXSXSXSXSXSXSXSXSXSXSXSXSXSXSXSXSXSXSXSXSXSXSXSXSXSXSXSXSXSX"
};
