/* XPM */
static char *_1d08970888c4537c5b1d8b3b37972aeDDDvJvzPHiYWyIXz[] = {
/* columns rows colors chars-per-pixel */
"31 31 5 1 ",
"  c None",
". c #141B1B",
"X c #345A52",
"o c #4A7F4B",
"O c #74A334",
/* pixels */
".oOOOOOOOOOOOOOOOOOOOOOOOOOOo. ",
"oOOOOOOOOOOOOOOOOOOOOOOOOOOOOo.",
"OOOOOOOOOOOOOOOOOOOOOOOOOOOOOOO",
"OOOOOOOOOOOOOOOOOOOOOOOOOOOOOOO",
"OOOoOOOOOOOOOOOOOOOoOOOOOOOOOOO",
"OOOOoOOOOOOOOOOOOOOOoOOOOOOOOOO",
"OOOOOOOOOOOOOOOOOOOOOOOOOOOOOOO",
"OOOOOOOOOOOOOOOOOOOOOOOOOOOOOOO",
"OOOOOOOOOoOOOOOOOOOOOOOOOoOOOOO",
"OOOOOOOOoOOOOOOOOOOOOOOOoOOOOOO",
"OOOOOOOOOOOOOOOOOOOOOOOOOOOOOOO",
"OOOOOOOOOOOOOOOOOOOOOOOOOOOOOOO",
"OOOOOOOOOOOOOOOOOOOOOOOOOOOOOOO",
"OOOOOOOOOOOOOOOOOOOOOOOOOOOOOOO",
"OOOOOOOOOOOOOOOOOOOOOOOOOOOOOOO",
"OOOOOOOOOOOOOOOOOOOOOOOOOOOOOOO",
"OOOOOOOOOOOOOOOOOOOOOOOOOOOOOOO",
"OOOOOOOOOOOOOOOOOOOOOOOOOOOOOOO",
"OOOOOOOOOOOOOOOOOOOOOOOOOOOOOOO",
"OOOOOOOOOOOOOOOOOOOOOOOOOOOOOOO",
"OOOOOOOOOOoOOOOOOOOoOOOOOOOOOOO",
"OOOOOOOOOoOOOOOOOOOOoOOOOOOOOOO",
"OOOOOOOOOOOOOOOOOOOOOOOOOOOOOOO",
"OOOOOOOOOOOOOOOOOOOOOOOOOOOOOOO",
"OOOOoOOOOOOOOOOOOOOOOOOOOoOOOOO",
"OOOOOoOOOOOOOOOOOOOOOOOOoOOOOOO",
"OOOOOOOOOOOOOOOOOOOOOOOOOOOOOOo",
"oOOOOOOOOOOOOOOOOOOOOOOOOOOOOoo",
"oOOOOOOOOOOOOOOOOOOOOOOOOOOOOoo",
"oOOOOOOOOOOOOOOOOOOOOOOOOOOOOoX",
".OOOOOOOOOOOOOOOOOOOOOOOOOOOO. "
};
