/* XPM */
static char *result[] = {
/* columns rows colors chars-per-pixel */
"50 50 70 1 ",
"  c #010001",
". c #0D0203",
"X c #0A060C",
"o c #100000",
"O c #160B0A",
"+ c #190E0B",
"@ c #1D120D",
"# c #1D1312",
"$ c #230A00",
"% c #20140F",
"& c #231610",
"* c #251913",
"= c #2A1C15",
"- c #231C1B",
"; c #3A2209",
": c #2F2017",
"> c #2F211A",
", c #302017",
"< c #35251B",
"1 c #382518",
"2 c #3A291E",
"3 c #3D2B20",
"4 c #40270F",
"5 c #40280F",
"6 c #442B13",
"7 c #482F17",
"8 c #4A3019",
"9 c #412E22",
"0 c #453124",
"q c #4A3527",
"w c #4D3827",
"e c #4C3728",
"r c #4E3929",
"t c #533D2C",
"y c #56402E",
"u c #59422F",
"i c #5C4531",
"p c #644B35",
"a c #694F37",
"s c #684F38",
"d c #6D533B",
"f c #71553D",
"g c #74583F",
"h c #565356",
"j c #59595D",
"k c #715741",
"l c #775C44",
"z c #785C45",
"x c #7C614A",
"c c #5E5F62",
"v c #6B6B6E",
"b c #706D6F",
"n c #6E6F73",
"m c #727277",
"M c #76767B",
"N c #83664D",
"B c #86694F",
"V c #876950",
"C c #8A6D53",
"Z c #8F7157",
"A c #95765B",
"S c #97785D",
"D c #99795E",
"F c #9B7B60",
"G c #7D7E83",
"H c #7F8085",
"J c #808186",
"K c #83848A",
"L c #8A8B91",
"P c None",
/* pixels */
"PPPPPPPPPPPPPPPPPPPPPPPPPPPPPPPPPPPPPPPPPPPPPPPPPP",
"PPPPPPPPPPPPPPPPPPPPPPPPPPPPPPPPPPPPPPPPPPPPPPPPPP",
"PPPPPPPPPPPPP&@@@%@@%@@@@@@@@@@%@@@@@PPPPPPPPPPPPP",
"PPPPPPPPPPPPP*&&&******&&==&&*=&**&&&PPPPPPPPPPPPP",
"PPPPPPPPPPPPP .                    . PPPPPPPPPPPPP",
"PPPPPPPPPP& qiiixxxxxxxxxxxxxxxxxziipq %&PPPPPPPPP",
"PPPPPPPPP&*.ulggAFDDSDDDDDDDDDDFDSgflt.=&PPPPPPPPP",
"PPPPPPPPP . wdaaZSSSSSDSSDSSSSAAAAaafw . PPPPPPPPP",
"PPPPPPPPPturkCBBASDZNNNNNNxNNxZDAABBVktytPPPPPPPPP",
"PPPPP@&+<fgfVDDDAADBpddadddddaCDAADDDBdgf<+%%PPPPP",
"PPPPP@%O,ddaNDAAASDCdfffdfffddCSASAADBadd,+@@PPPPP",
"PPPPP@%O:dfdNDASAADCafdfdddffdCDAAAADBdfd,+*@PPPPP",
"PPPPP@&+:dfaBSAAAASCaffffffffdBSAAAASBdfd,+&@PPPPP",
"PPPPP@%+,ffdBDSSSASCaadaadaadaCDAADDDBaff,+#@PPPPP",
"PPPPP@%+:ppizCCCAASZxNNxxNxNNxZSSACCCzipa=+%@PPPPP",
"PPPPP@%@&qq0idadZAAADDSDDDDSSSAAAAaadi0qq&@@@PPPPP",
"PPPPP@&@*ttwpkdkADDDSSSSSSSDSSSDDAgfgpqrr=+&@PPPPP",
"PPPPPP@@%992ysspCCCZCZZCCZCZCZCCCVspst3q9&@#PPPPPP",
"PPPPPPPPP++X<qqqadaddddaaddddddadsqqe<.++PPPPPPPPP",
"PPPPPPPPP%&O3teedgfffffffffffgfffdrrt3O&#PPPPPPPPP",
"PPPPPPPPP@%+<q30ppppppippipppppppp99q<+%@PPPPPPPPP",
"PPPPPPPPP%%@@+@@OOOOOOOOOOOOOOOOOO+@++@%@PPPPPPPPP",
"PPPPPPPPP@@@@@+@++@+OOO@@@@OOOOOO+@@+#@@@PPPPPPPPP",
"PPPPPPPPP%%+&======:11<:=*:<<<<1<<===&@@%PPPPPPPPP",
"PPPPPPPPP@%+2rrrreqikdkuqqyddffdfdeqt2O%@PPPPPPPPP",
"PPPPPPPPP@%+2rqqeqqtfddtqqyfffdfddewe2O%@PPPPPPPPP",
"PPPPPPPPP@@O2rqqtttifffuwruddddffdeee2O%@PPPPPPPPP",
"PPPPPPPPP@%O2rqrsdddfdfddfaqqqpfddeqt2O@@PPPPPPPPP",
"PPPPPPPPP%%+2eeedfdffddfdfsqwqpdddewe2+&@PPPPPPPPP",
"PPPPPPPPP@%O2teeddfddffdffsqeqpfddeqr2O@@PPPPPPPPP",
"PPPPPPPPP@%O2eqedddffdfddksqeqpfddrqr2+@%PPPPPPPPP",
"PPPPPPPPP@@O2tqedffddfdfdfsqeqpfddrqr2+%@PPPPPPPPP",
"PPPPPPPPP@&O2rqedfddddddfkdqqqpffdqqe3O@@PPPPPPPPP",
"PPPPPPGJM*@O2rweddfsrtrsfdddddddfdrqe3O@-MHGPPPPPP",
"PPPPPPLKG-+O2wqeddfpqeqsfdddfffdddrqr3+$-GKLPPPPPP",
"PPPPPPHGM-@+2tweddfpqeqsffdddfddfdwqr3++-MGHPPPPPP",
"PPPPPPJGM-++2eeetttq*:*pfffdffittteer3O@-MHJPPPPPP",
"PPPPPPJGM-%#2eeeqqr3O@Xpfddfdfyqqqeee3@%-MGJPPPPPP",
"PPPPPPKGM+. <teeqrr3O&Opkdfffgiqrqrer1 .+MGJPPPPPP",
"PPPGPHGGGnnmh$<=qrr3+@+ruyt232qqrq::+hmnnGGGHPGPPP",
"PPHLKKGHHJGKc -#qrr0#-&0rrqX#X3teq#- cJGJHHGKKLJPP",
"PPJHHGHGGGGHj ..678; . ;88; . ;876.. jHGGGGHGGHJPP",
"PPPPPPPPPHJGmvvvvbbnvvvnnbnvvvvbvnvvvmGKHPPPPPPPPP",
"PPPPPPPPPGKGHJGGHJHHGHHHKHHHHGHJHJHHHHGKGPPPPPPPPP",
"PPPPPPPPPHJGGGGGGGGGGGGGGGGGGGGGGGGGGGGJHPPPPPPPPP",
"PPPPPPPPPPPPPGJGPPPPPPPPPPPPPPPPPPGJGPPPPPPPPPPPPP",
"PPPPPPPPPPPPPGKGPPPPPPPPPPPPPPPPPPGKGPPPPPPPPPPPPP",
"PPPPPPPPPPPPPHKGPPPPPPPPPPPPPPPPPPGKHPPPPPPPPPPPPP",
"PPPPPPPPPPPPPPPPPPPPPPPPPPPPPPPPPPPPPPPPPPPPPPPPPP",
"PPPPPPPPPPPPPPPPPPPPPPPPPPPPPPPPPPPPPPPPPPPPPPPPPP"
};
